<svg width="52.000000" height="45.000000" viewBox="0 0 52 45" fill="none" xmlns="http://www.w3.org/2000/svg" xmlns:xlink="http://www.w3.org/1999/xlink">
	<desc>
			Created with Pixso.
	</desc>
	<defs/>
	<mask id="mask5_590" mask-type="alpha" maskUnits="userSpaceOnUse" x="-0.258789" y="20.546875" width="46.409180" height="4.424988">
		<path id="Vector" d="M44.67 22.52C44.7 22.5 44.74 22.48 44.78 22.47C44.66 22.45 44.61 22.45 44.67 22.52Z" fill="#FFFFFF" fill-opacity="1.000000" fill-rule="nonzero"/>
		<path id="Vector" d="M46.15 22.34C45.68 22.28 45.22 22.32 44.77 22.47C45.14 22.55 46.15 22.9 46.15 22.34Z" fill="#FFFFFF" fill-opacity="1.000000" fill-rule="nonzero"/>
		<path id="Vector" d="M44.81 23.44L45.26 23.29C44.94 23.12 45.05 23.39 44.81 23.44Z" fill="#FFFFFF" fill-opacity="1.000000" fill-rule="nonzero"/>
		<path id="Vector" d="M44.87 22.91L44.79 22.7L44.58 22.9L44.87 22.91Z" fill="#FFFFFF" fill-opacity="1.000000" fill-rule="nonzero"/>
		<path id="Vector" d="M25.72 21.07C25.75 20.97 25.75 20.86 25.7 20.76L25.72 21.07Z" fill="#FFFFFF" fill-opacity="1.000000" fill-rule="nonzero"/>
		<path id="Vector" d="M25.04 21.76C24.97 21.78 24.9 21.8 24.83 21.81C24.86 21.82 24.9 21.82 24.94 21.81C24.98 21.8 25.01 21.78 25.04 21.76Z" fill="#FFFFFF" fill-opacity="1.000000" fill-rule="nonzero"/>
		<path id="Vector" d="M26.54 21.1L26.33 21.07C26.4 21.1 26.47 21.11 26.54 21.1Z" fill="#FFFFFF" fill-opacity="1.000000" fill-rule="nonzero"/>
		<path id="Vector" d="M36.19 21.82C36.34 21.67 36.49 21.54 36.6 21.45C36.2 21.28 36.25 21.62 36.19 21.82Z" fill="#FFFFFF" fill-opacity="1.000000" fill-rule="nonzero"/>
		<path id="Vector" d="M21.62 24.14L21.53 23.97C21.5 24.05 21.49 24.12 21.62 24.14Z" fill="#FFFFFF" fill-opacity="1.000000" fill-rule="nonzero"/>
		<path id="Vector" d="M25.31 23.92C25.3 23.84 25.27 23.77 25.23 23.7C25.22 23.71 25.2 23.73 25.18 23.74L25.31 23.92Z" fill="#FFFFFF" fill-opacity="1.000000" fill-rule="nonzero"/>
		<path id="Vector" d="M27.17 21.37L27.18 21.39L27.32 21.29C27.23 21.25 27.18 21.28 27.17 21.37Z" fill="#FFFFFF" fill-opacity="1.000000" fill-rule="nonzero"/>
		<path id="Vector" d="M20.45 24.27C20.4 24.38 20.36 24.51 20.35 24.63C20.41 24.6 20.45 24.54 20.47 24.47C20.49 24.4 20.49 24.33 20.45 24.27Z" fill="#FFFFFF" fill-opacity="1.000000" fill-rule="nonzero"/>
		<path id="Vector" d="M24.83 21.81L24.83 21.81L24.86 21.81C24.85 21.8 24.84 21.81 24.83 21.81Z" fill="#FFFFFF" fill-opacity="1.000000" fill-rule="nonzero"/>
		<path id="Vector" d="M26.54 23.74C26.46 23.77 26.39 23.79 26.3 23.82C26.33 23.83 26.35 23.84 26.37 23.84C26.39 23.84 26.42 23.84 26.44 23.83C26.46 23.82 26.48 23.81 26.5 23.8C26.52 23.78 26.53 23.76 26.54 23.74Z" fill="#FFFFFF" fill-opacity="1.000000" fill-rule="nonzero"/>
		<path id="Vector" d="M36.26 21.73L36.13 21.86C36.16 21.86 36.19 21.84 36.22 21.82C36.24 21.8 36.25 21.76 36.26 21.73Z" fill="#FFFFFF" fill-opacity="1.000000" fill-rule="nonzero"/>
		<path id="Vector" d="M43.26 22.08C43.1 22.08 43.09 22.2 43.09 22.31C43.17 22.26 43.23 22.18 43.26 22.08Z" fill="#FFFFFF" fill-opacity="1.000000" fill-rule="nonzero"/>
		<path id="Vector" d="M0.66 22.33L0.6 22.34C0.61 22.34 0.62 22.34 0.63 22.34C0.64 22.34 0.66 22.34 0.66 22.33Z" fill="#FFFFFF" fill-opacity="1.000000" fill-rule="nonzero"/>
		<path id="Vector" d="M6.53 21.73C6.56 21.69 6.57 21.64 6.58 21.6C6.51 21.55 6.51 21.63 6.53 21.73Z" fill="#FFFFFF" fill-opacity="1.000000" fill-rule="nonzero"/>
		<path id="Vector" d="M9.59 24.97L10.27 24.55C10.33 24.71 10.69 24.75 10.49 24.93L10.73 24.66L10.75 24.84C12.05 25.14 12.78 23.8 14.18 24.56L14.17 24.62L14.79 24.19C14.93 24.23 15.04 24.55 15.28 24.66C15.1 24.32 15.68 24.61 15.75 24.32C15.95 24.46 15.8 24.55 15.78 24.68C16.55 24.99 16.96 24.43 17.76 24.65C17.33 24.41 16.86 24.24 16.37 24.14C16.93 23.93 17.11 24.27 17.74 24.16L17.47 24.31C17.93 24.81 18.4 24.02 18.63 24.58C19 24.5 19.2 23.93 19.69 24.02L19.61 24.52L20.04 24.52L19.97 24.18C20.02 24.17 20.07 24.17 20.12 24.2C20.17 24.22 20.2 24.26 20.22 24.31C20.43 23.92 20.89 24.12 21.23 23.82L21.31 23.99C21.33 23.95 21.35 23.91 21.37 23.87C21.52 24.16 21.81 24.05 21.89 24.32C21.78 24.39 21.51 24.54 21.5 24.36C21.25 24.7 21.94 24.55 22.16 24.55C21.89 24.39 22.18 24.35 22.3 24.28C22.33 24.32 22.29 24.35 22.29 24.41C22.74 24.59 22.68 23.74 23.09 24.33L23.08 24.01L23.46 24.24C23.34 23.61 23.89 24.18 23.81 23.59C24.17 23.57 23.84 23.95 23.96 23.88C24.33 24.01 24.8 23.43 24.98 23.73C25.23 23.51 25.58 23.65 25.8 23.52L25.88 23.79C26 23.72 26.12 23.59 26.26 23.64C26.27 23.68 26.26 23.72 26.24 23.75C26.64 23.62 27.07 23.56 27.5 23.57C27.51 23.75 27.54 23.86 27.31 23.92C27.76 24.18 28.25 23.58 28.86 23.68L28.85 23.81L29.12 23.59C29.07 23.68 29.14 23.77 29.16 23.88C29.74 23.94 30.43 23.93 30.59 23.39C30.47 23.52 30.92 23.71 30.64 23.93C31.13 23.57 31.87 23.65 32.48 23.56L32.46 23.54L32.69 23.41L32.72 23.46L32.56 23.55C32.79 23.52 33.01 23.43 33.18 23.27C33.26 23.44 33.38 23.59 33.53 23.7C33.46 23.37 34.33 24.01 34.55 23.64C34.62 23.73 34.44 23.7 34.57 23.82C35.34 23.77 36.4 23.38 37.39 23.65C37.32 23 38.14 23.18 38.57 22.88C38.78 23.27 38.33 23.08 38.26 23.36C38.52 23.28 38.42 23.84 38.86 23.54C38.85 23.61 38.88 23.65 38.77 23.65C39.06 23.68 38.61 23.17 39.07 23.3L39.14 23.57L39.33 23.22C40.25 23.4 40.97 23.21 41.81 23.51C41.84 23.45 41.8 23.31 41.68 23.24C42.04 23.25 42.35 22.81 42.81 23.1L42.73 23.2C43.42 23.45 43.31 22.89 44.05 22.81C43.88 22.78 43.52 22.97 43.42 22.65C43.44 22.45 43.84 22.49 44 22.65L43.86 22.29C43.8 22.51 43.51 22.48 43.31 22.58C43.37 22.55 43.36 22.48 43.37 22.41C43.2 22.52 42.94 22.51 42.69 22.6L43.09 22.64C43 22.99 42.43 22.62 42.31 22.75C42.24 22.41 42.49 22.46 42.19 22.18C41.52 22.05 41.89 22.53 41.35 22.82L41.48 22.94C41.29 22.98 41.21 23.33 40.88 23.07C40.83 22.85 41.05 22.86 41.14 22.75C41.05 22.61 40.87 23.14 40.61 22.91C40.72 22.6 41.17 22.48 41.5 22.49C41.44 22.39 41.41 22.27 41.43 22.16C40.52 22.52 39.55 22.66 38.57 22.57C38.98 22.16 38.35 22.57 38.37 22.12C38.37 22.43 38.01 22.13 37.77 22.26C37.59 21.92 38.24 22 37.98 21.77C37.49 21.84 36.95 22.45 36.27 22.32C36.28 22.19 36.43 22.17 36.44 22.11C36.03 22.2 35.64 22.98 35.23 22.45C35.39 22.26 35.59 22.06 35.77 21.87C35.67 21.86 35.58 21.81 35.5 21.74L35.6 21.5C35.06 21.42 35.32 22.03 35.1 22.34L34.71 21.99C34.46 21.88 34.18 21.86 33.92 21.95C33.66 22.03 33.44 22.21 33.31 22.45C33.2 22.44 32.77 22.43 32.87 22.12C33.07 21.7 33.14 21.41 33.72 21.4C33.87 21.7 33.36 21.73 33.54 21.76C33.76 21.7 34.24 21.93 34.38 21.67L33.76 21.7C33.67 21.25 34.02 21.68 34.08 21.46C33.83 21.09 33.57 21.49 33.26 21.28L33.3 21.26C32.82 21.34 32.87 21.25 32.41 21.44C32.48 21.85 32.64 21.7 32.91 21.86C32.11 21.86 31.19 22.62 30.22 21.91L30.62 21.56C30.3 21.49 29.86 21.86 29.77 21.34C30.15 21.51 29.93 21.19 30.09 21.1L30.12 21.15C30.16 21.13 30.27 21.06 30.17 20.99C29.93 21.23 29.64 21.41 29.32 21.53C29.42 21.42 29.12 21.25 29.06 21.17C28.8 21.26 29.11 21.4 29.16 21.56C29.02 21.58 28.84 21.87 28.65 21.59C28.39 21.36 28.86 21.35 28.88 21.15L28.12 21.52L28.12 21.45C28.11 21.47 28.1 21.5 28.08 21.51C28.06 21.53 28.04 21.54 28.01 21.55C27.99 21.56 27.96 21.56 27.93 21.56C27.91 21.56 27.88 21.55 27.86 21.54C27.74 21.35 27.92 21.31 28.06 21.36C27.55 21.09 27.42 21.96 26.91 21.4L26.7 21.56C26.67 21.52 26.6 21.43 26.64 21.41L26.44 21.58C26.03 21.76 26.23 21.2 26.06 21.11L26.08 21.11C25.93 21.05 25.78 20.88 25.87 20.84L25.45 21.08L25.45 21.07C25.34 21.4 24.65 21.48 24.8 22.08C24.66 22.03 24.53 21.92 24.57 21.84C24.22 21.88 24.55 21.37 23.99 21.47C23.97 21.35 24.04 21.38 24.12 21.33C23.96 21.32 23.91 21.36 23.9 21.43C23.88 21.35 23.85 21.27 23.8 21.2C23.85 21.42 23.6 21.37 23.47 21.33L23.58 20.95C23.49 21.13 23.41 21.17 23.16 21.12L23.26 20.88C22.89 20.96 23.35 21.39 22.83 21.19L23.31 21.41C22.83 21.5 23.11 21.97 22.94 22.2C22.51 22.58 21.71 21.9 21.49 22.66C21.37 22.41 21.41 22.32 21.22 22.12C21.35 22.1 21.48 22.03 21.57 21.93C21.66 21.83 21.72 21.7 21.74 21.56C22.29 21.18 22.12 22.49 22.68 21.9C22.57 21.59 22.35 21.59 22.19 21.74C22.11 21.47 22.31 21.3 22.43 21.16C22.07 21.31 21.41 20.98 21.17 21.02C21.08 21.16 20.81 21.37 20.65 21.29C20.72 21.49 20.13 21.65 20.43 22.07C20.02 22.19 20.02 21.49 19.72 21.98C19.79 21.62 19.38 21.73 19.48 21.42C19.7 21.73 20.05 21.22 20.21 20.99L19.54 20.81C19.72 20.9 19.55 21.13 19.47 21.17L19.32 20.87C19.4 21.59 18.1 20.38 17.99 21.21C18.18 21.17 18.41 21.42 18.41 21.03C18.82 21.24 18.46 21.57 18.69 21.82C18.19 22.11 17.23 21.66 16.74 22.2C16.8 21.98 17.09 22 17.04 21.71C16.55 21.55 16.17 22.23 15.71 22.5L15.71 22.12C15.35 22.46 15.5 21.98 15.06 22.12C15.09 22.17 15.19 22.3 15.08 22.3C14.69 22.28 14.97 21.99 14.68 21.9C14.34 22.48 14.36 21.51 13.83 21.83L13.83 21.7C13.42 21.95 12.67 21.44 12.14 21.38C12.2 21.47 12.57 21.37 12.61 21.74L11.98 21.85C11.92 21.76 11.64 21.74 11.76 21.54C11.84 21.49 11.94 21.56 12.01 21.58L11.87 21.4C11.32 21.6 12.04 21.94 12.12 22.28C11.77 22.17 11.74 22.51 11.53 22.51C11.34 22.17 11.85 22.12 11.49 21.76C11.25 21.58 10.68 21.86 10.55 22.2C10.04 21.42 9.27 22.08 9.1 21.48C9.14 21.52 9.08 21.75 8.91 21.66L8.96 21.5C8.44 21.24 8.66 22.07 8.35 21.94C8.32 21.82 8.4 21.78 8.41 21.64C7.77 21.52 7.66 22.43 6.97 22.08C6.98 22.01 6.98 21.94 7.05 21.96C7.06 21.89 6.95 21.9 6.79 22.06L7.06 22.28C6.93 23 6.15 22 5.71 22.21C5.71 22.08 6.08 22.05 5.84 21.87C5.52 21.88 5.74 22.64 5.27 22.29C5.42 22.2 5.28 21.84 5.42 21.76C5.16 21.72 4.93 21.52 4.91 21.8C4.87 21.78 4.84 21.75 4.81 21.71C4.79 21.68 4.77 21.63 4.76 21.59C4.65 21.81 4.36 21.67 4.17 21.61L4.18 21.48C4.05 22.2 3.67 21.53 3.28 21.59L3.29 21.38C3.14 21.48 2.94 21.73 2.57 21.44L2.66 21.19C2.47 21.38 1.92 21.01 1.82 21.4C1.72 21.33 1.93 20.94 1.53 20.93C1.49 21.09 1.22 21.25 1.06 21.03C1.03 20.92 1.04 20.78 1.18 20.89C1.25 20.91 1.21 20.94 1.21 21.01L1.29 20.82C0.95 20.65 1.1 21.01 0.75 20.9C0.65 20.77 0.8 20.67 0.81 20.54L-0.26 21.02C-0.24 21.2 -0.07 21.29 -0.12 21.51L0.3 21.57C0.57 21.86 0.17 21.91 0.02 22.01L0.31 22.02C0.33 22.05 0.33 22.09 0.31 22.11L0.52 22.09C0.06 22.51 1.23 22.61 0.71 22.94C0.79 22.91 0.86 22.85 0.91 22.78C0.96 22.71 1 22.63 1.02 22.55C1.28 22.45 1.27 22.65 1.4 22.77L1.05 23.05C1.67 22.92 1.07 23.36 1.59 23.55C2.07 23.31 2.61 24.21 2.9 24.22C3.44 24.14 2.6 23.89 2.9 23.7C3.19 23.65 3.1 23.9 3.31 23.96L3.34 23.55C3.67 23.48 3.46 23.94 3.61 23.78C3.95 24.02 3.56 23.93 3.58 24.25C3.62 24.16 3.88 23.99 4.05 24.15C4.08 24.26 3.71 24.29 3.96 24.33C4.77 24.09 5.09 24.53 5.85 24.45L5.83 24.65C5.91 24.61 5.95 24.51 6.05 24.58L6.04 24.71C6.47 24.56 6.92 24.47 7.38 24.46L7.18 24.71L7.57 24.41L7.61 24.77C7.67 24.41 8.26 24.62 8.67 24.51L8.72 24.73L8.95 24.59L8.9 24.75C9.15 24.72 9.36 24.34 9.7 24.51C9.49 24.45 9.54 24.81 9.59 24.97ZM20.11 24.11L20.22 24.09C20.21 24.11 20.19 24.12 20.17 24.12C20.15 24.12 20.13 24.12 20.11 24.11L19.93 24.14C19.9 23.92 20.01 24.06 20.11 24.11ZM36.98 23.37L36.69 23.41C36.76 23.43 36.95 23.32 36.9 23.48C36.93 23.46 37.04 23.46 36.98 23.37ZM19.18 21.91L19.27 21.73L19.43 21.95L19.18 21.91ZM16.76 21.93L16.99 21.79L17.02 21.84L16.79 21.98L16.76 21.93ZM13.9 24.02C13.97 23.62 14.15 24.03 14.31 23.86C14.32 23.84 14.33 23.83 14.35 23.82C14.34 23.84 14.33 23.85 14.31 23.86C14.23 24 14.19 24.35 13.9 24.02L13.9 24.02ZM19.4 23.69C19.45 23.91 19.16 23.96 19.11 24.11C18.97 24.07 19.1 23.87 19.11 23.73C19.04 23.71 19 23.73 18.92 23.78C18.86 23.3 19.2 23.93 19.4 23.69ZM25.21 23.36L25.01 23.54L25.08 23.56L25.21 23.36ZM26.45 23.53C26.51 23.54 26.58 23.52 26.63 23.5C26.69 23.47 26.74 23.43 26.77 23.38C26.8 23.33 26.83 23.27 26.83 23.2C26.83 23.14 26.82 23.08 26.79 23.02C26.57 23.08 26.21 23.04 26.14 23.33C26.24 23.15 26.17 23.75 26.45 23.53L26.45 23.53ZM16.3 23.35C16.45 23.26 16.57 22.74 16.98 23.01L16.75 23.15L16.82 23.17L16.8 23.37C16.75 22.83 16.45 23.33 16.3 23.35ZM28.7 23.14C28.76 23.13 28.82 23.1 28.87 23.07C28.91 23.03 28.96 22.99 28.99 22.93C29.02 22.88 29.03 22.82 29.04 22.76C29.04 22.7 29.04 22.64 29.01 22.58C29.1 22.79 28.71 23 28.52 23.18C28.59 23.13 28.63 23.11 28.7 23.14ZM28.49 22.75C28.35 22.71 28.34 22.46 28.14 22.64C28.23 22.84 28.24 23.33 27.86 23.17C28.05 22.81 28.03 22.63 28.34 22.46L28.49 22.75ZM28.07 23.48L27.6 23.32C27.73 22.89 27.87 23.32 28.07 23.48L28.22 23.53C28.2 23.54 28.17 23.53 28.14 23.52C28.11 23.52 28.09 23.5 28.07 23.48L28.07 23.48ZM31.24 23.41L31.15 23.52C31.18 23.58 31.17 23.63 31.04 23.65L31.15 23.52C31.09 23.4 30.9 23.27 31.24 23.41L31.24 23.41ZM28.48 23.45L28.89 23.41C28.75 23.36 28.47 23.27 28.48 23.45ZM30.4 23.13C30.59 23.13 30.79 23.15 30.98 23.18C30.89 23.29 30.49 23.33 30.4 23.12L30.4 23.13ZM39.9 23.04L39.71 22.77L39.97 22.75L39.9 23.04ZM37.11 22.61L36.97 22.63L36.87 22.49L37.11 22.61ZM33.94 22.35C33.96 22.35 33.99 22.37 34.01 22.38C34.03 22.4 34.04 22.42 34.05 22.44C34.39 22.63 34.79 22.71 35.18 22.67C35.34 22.84 35.02 23.07 34.93 23.18C34.9 22.26 34.53 23.21 34.2 22.89C34.25 22.8 34.43 22.83 34.44 22.7C34.39 22.66 34.33 22.63 34.27 22.62C34.2 22.61 34.14 22.62 34.08 22.64C34.07 22.71 34.04 22.76 34 22.76C34.01 22.73 34.01 22.71 34.03 22.69C34.04 22.67 34.06 22.65 34.08 22.64C34.09 22.58 34.08 22.51 34.05 22.45C34.01 22.42 33.97 22.39 33.94 22.35ZM30.06 22.3C30.02 22.39 30.19 22.49 29.99 22.6C29.97 22.55 29.96 22.49 29.97 22.44C29.99 22.39 30.02 22.34 30.06 22.3C30.07 22.27 30.11 22.25 30.21 22.22C30.16 22.23 30.1 22.26 30.06 22.3ZM30.15 21.82L29.71 22.19L29.84 21.99L29.53 22.16C29.53 22.09 29.55 22.02 29.58 21.96C29.62 21.9 29.67 21.84 29.74 21.81C29.8 21.77 29.87 21.76 29.94 21.76C30.02 21.76 30.09 21.78 30.15 21.82ZM28.82 22.06L29.37 21.94L29.37 21.99L29.41 21.98L29.35 22.21L29.37 21.99L28.82 22.06ZM24.13 22.52L23.85 22.49C24 22.37 24.18 22.31 24.37 22.32C23.93 21.69 24.29 22.43 23.74 22.18C24.31 22.18 24 21.79 23.91 21.54C23.88 21.9 23.1 21.69 23.49 22.44C23.65 22.29 24.08 22.99 24.13 22.52ZM20.44 22.32L20.1 22.38L20.47 22.36L20.44 22.32ZM10.8 22.18C10.83 21.84 11.38 22.15 11.39 22.33C11.3 22.19 11.05 22.22 10.8 22.18ZM7.34 22.29C7.55 22.36 7.73 21.93 7.91 22.33L7.54 22.49C7.44 22.36 7.32 22.5 7.34 22.29ZM4.8 22.25L4.77 22.66L4.88 22.59L4.8 22.25ZM5.12 21.79C5.05 21.77 4.79 21.87 4.92 22.04L5.12 21.79ZM2.55 22.17L2.61 21.8L2.43 21.78L2.55 22.17ZM2.78 22.41C2.82 22.37 2.82 22.28 2.81 22.19C2.88 22.09 3.02 22.05 3.19 22.15C3.22 22.33 3.08 22.22 3.01 22.27C3.08 22.29 3.21 22.4 3.32 22.33C3.1 22.02 3.2 22.01 3.12 21.74C2.68 21.59 2.79 21.93 2.81 22.19C2.79 22.22 2.78 22.26 2.78 22.3C2.77 22.34 2.77 22.37 2.78 22.41L2.78 22.41ZM4.21 22.49C4.16 22.45 4.12 22.4 4.09 22.34C3.81 22.24 3.53 22.15 3.72 21.83L3.97 21.86C3.86 21.87 3.89 21.91 3.89 21.98C4.09 22.11 4.15 21.88 4.26 21.81C4.22 21.94 3.99 22.11 4.09 22.33C4.16 22.36 4.24 22.39 4.31 22.42C4.33 22.38 4.38 22.35 4.46 22.46L4.45 22.53C4.41 22.48 4.36 22.45 4.31 22.42C4.28 22.47 4.26 22.52 4.21 22.49ZM2.65 22.69C2.65 22.76 2.71 22.84 2.67 22.94L2.56 23.01C2.35 22.88 2.51 22.71 2.65 22.69L2.65 22.69ZM9.95 22.44C9.99 22.41 10.38 22.43 10.32 22.2L10.51 22.54C10.3 22.47 10.17 22.75 10.27 22.81C10.08 22.61 9.96 22.75 9.95 22.43L9.95 22.44ZM19.85 22.34C19.77 22.45 19.22 22.2 19.25 22.63C18.97 22.16 19.58 22.25 19.85 22.34L19.85 22.34ZM20.02 22.81C20.06 22.8 20.1 22.79 20.14 22.79C20.27 22.7 20.18 22.36 20.48 22.54C20.44 22.63 20.3 22.52 20.26 22.61C20.33 22.82 20.28 22.78 20.15 22.79C20.13 22.8 20.11 22.81 20.09 22.81C20.07 22.82 20.05 22.81 20.02 22.81L20.02 22.81ZM14.52 23.2L14.8 23.22L14.91 22.9L14.52 23.2ZM11.93 23.61L12.15 23.54L12.05 23.47C12.03 23.39 11.96 23.27 12.01 23.21C12.04 23.21 12.08 23.19 12.11 23.18C12.09 23.17 12.07 23.18 12.06 23.18C12.04 23.19 12.02 23.2 12.01 23.21C11.84 23.24 11.62 23.22 11.66 23.45C11.7 23.36 12.02 23.36 12.04 23.54L11.93 23.61ZM6.5 23.91C6.61 23.84 6.61 23.78 6.85 23.95C6.79 23.99 6.73 24 6.67 23.99C6.6 23.99 6.54 23.96 6.5 23.91ZM13.35 23.84C13.33 23.66 13.65 23.73 13.49 23.5L13.35 23.46C13.56 23.53 13.35 23.01 13.69 23.25L13.51 23.23C13.75 23.34 13.34 23.59 13.69 23.71C13.83 23.75 13.52 23.93 13.34 23.84L13.35 23.84ZM6.2 24.42C6.39 24.37 6.21 23.9 6.59 24.12C6.36 24.19 6.51 24.61 6.2 24.42ZM11.6 24.58L11.63 24.62L11.85 24.48L11.82 24.44L11.6 24.58Z" fill="#FFFFFF" fill-opacity="1.000000" fill-rule="nonzero"/>
		<path id="Vector" d="M7.65 21.98C7.61 21.96 7.57 21.95 7.53 21.95C7.49 21.95 7.45 21.96 7.41 21.98C7.49 21.99 7.57 21.99 7.65 21.98Z" fill="#FFFFFF" fill-opacity="1.000000" fill-rule="nonzero"/>
		<path id="Vector" d="M20.76 21.13C20.77 21.16 20.79 21.19 20.81 21.22C20.83 21.24 20.86 21.26 20.89 21.28C20.86 21.22 20.82 21.16 20.76 21.13Z" fill="#FFFFFF" fill-opacity="1.000000" fill-rule="nonzero"/>
		<path id="Vector" d="M21.37 20.99L21.4 20.99L21.42 20.96L21.37 20.99Z" fill="#FFFFFF" fill-opacity="1.000000" fill-rule="nonzero"/>
		<path id="Vector" d="M42.92 21.68C43.02 21.3 42.74 21.61 42.59 21.6C42.74 21.61 42.85 21.88 42.92 21.68Z" fill="#FFFFFF" fill-opacity="1.000000" fill-rule="nonzero"/>
		<path id="Vector" d="M41.93 22.28C41.97 22.22 42.01 22.17 42.06 22.14C42.12 22.1 42.18 22.08 42.24 22.07C42.14 22.05 42.05 22.09 41.93 22.28Z" fill="#FFFFFF" fill-opacity="1.000000" fill-rule="nonzero"/>
		<path id="Vector" d="M42.82 22.15C42.64 22.07 42.44 22.04 42.24 22.07C42.39 22.09 42.54 22.24 42.82 22.15Z" fill="#FFFFFF" fill-opacity="1.000000" fill-rule="nonzero"/>
		<path id="Vector" d="M38.86 22.06C38.99 21.83 39.36 21.97 39.36 21.97C38.56 21.72 39.4 21.52 39.42 21.35C38.98 21.41 39.05 21.71 38.86 22.06Z" fill="#FFFFFF" fill-opacity="1.000000" fill-rule="nonzero"/>
		<path id="Vector" d="M37.9 22.14C37.98 22.15 38.05 22.16 38.12 22.2C38.09 22.17 38.05 22.15 38.02 22.14C37.98 22.14 37.94 22.14 37.9 22.14Z" fill="#FFFFFF" fill-opacity="1.000000" fill-rule="nonzero"/>
		<path id="Vector" d="M37.57 21.91C37.33 21.95 37.3 22.22 37.23 22.42C37.59 22.62 37.69 22.2 37.9 22.14C37.72 22.13 37.55 22.16 37.57 21.91Z" fill="#FFFFFF" fill-opacity="1.000000" fill-rule="nonzero"/>
		<path id="Vector" d="M33.33 21.11C33.38 21.09 33.53 21.09 33.5 20.94L33.06 20.93C32.91 21.01 33.24 21.08 33.33 21.11Z" fill="#FFFFFF" fill-opacity="1.000000" fill-rule="nonzero"/>
		<path id="Vector" d="M32.3 21.63C31.96 21.65 32.04 21.27 31.89 21.35L32.03 21.86L32.3 21.63Z" fill="#FFFFFF" fill-opacity="1.000000" fill-rule="nonzero"/>
		<path id="Vector" d="M32.82 23.59L32.91 23.54L32.8 23.56L32.82 23.59Z" fill="#FFFFFF" fill-opacity="1.000000" fill-rule="nonzero"/>
		<path id="Vector" d="M30.87 21.31L30.97 20.75C30.72 20.88 30.82 21.33 30.87 21.31Z" fill="#FFFFFF" fill-opacity="1.000000" fill-rule="nonzero"/>
		<path id="Vector" d="M29.85 20.97L30.01 20.8L29.41 20.96L29.85 20.97Z" fill="#FFFFFF" fill-opacity="1.000000" fill-rule="nonzero"/>
		<path id="Vector" d="M28.72 21.15L28.63 21.03L28.23 21.17L28.72 21.15Z" fill="#FFFFFF" fill-opacity="1.000000" fill-rule="nonzero"/>
		<path id="Vector" d="M15.58 21.61C15.64 22.09 16.28 21.88 16.51 22.01C16.22 21.41 16.01 22.21 15.58 21.61Z" fill="#FFFFFF" fill-opacity="1.000000" fill-rule="nonzero"/>
		<path id="Vector" d="M8.3 22.19L8.92 22.06C8.37 21.89 8.78 22.06 8.3 22.19Z" fill="#FFFFFF" fill-opacity="1.000000" fill-rule="nonzero"/>
	</mask>
	<g mask="url(#mask5_590)">
		<path id="Vector" d="M0.16 20.68C0.96 22.48 4.76 23.38 6.26 23.48C6.96 23.58 7.86 23.08 8.55 23.18C8.95 23.28 9.15 23.98 9.65 23.88C10.05 23.88 10.35 23.78 10.75 23.68C12.35 23.28 14.15 23.08 15.85 23.28C16.75 23.38 17.55 22.88 18.35 22.68C18.95 22.58 19.75 22.88 20.45 22.78C21.55 22.58 22.65 22.88 23.64 22.78C25.34 22.68 26.94 22.68 28.64 22.58C29.94 22.48 31.24 22.78 32.44 22.88C33.64 22.98 34.84 22.98 36.04 22.98C38.44 22.98 40.83 22.88 43.23 22.88" stroke="#202020" stroke-opacity="1.000000" stroke-width="3.998648" stroke-linejoin="round" stroke-dasharray="41.9858 41.9858"/>
	</g>
	<mask id="mask5_632" mask-type="alpha" maskUnits="userSpaceOnUse" x="20.733398" y="12.545898" width="29.222168" height="16.624634">
		<path id="Vector" d="M22.96 28.52C22.93 28.54 22.9 28.57 22.87 28.59C22.98 28.59 23.02 28.57 22.96 28.52Z" fill="#FFFFFF" fill-opacity="1.000000" fill-rule="nonzero"/>
		<path id="Vector" d="M21.69 29.05C22.12 29 22.52 28.84 22.87 28.59C22.54 28.6 21.58 28.46 21.69 29.05Z" fill="#FFFFFF" fill-opacity="1.000000" fill-rule="nonzero"/>
		<path id="Vector" d="M22.66 27.59L22.29 27.85C22.6 27.95 22.45 27.69 22.66 27.59Z" fill="#FFFFFF" fill-opacity="1.000000" fill-rule="nonzero"/>
		<path id="Vector" d="M22.71 28.15L22.81 28.36L22.96 28.1L22.71 28.15Z" fill="#FFFFFF" fill-opacity="1.000000" fill-rule="nonzero"/>
		<path id="Vector" d="M45.58 24.71C45.57 24.82 45.6 24.93 45.66 25.03L45.58 24.71Z" fill="#FFFFFF" fill-opacity="1.000000" fill-rule="nonzero"/>
		<path id="Vector" d="M46.16 23.5C46.21 23.45 46.27 23.41 46.33 23.38C46.27 23.38 46.23 23.42 46.16 23.5Z" fill="#FFFFFF" fill-opacity="1.000000" fill-rule="nonzero"/>
		<path id="Vector" d="M44.65 24.87L44.83 24.85C44.77 24.84 44.7 24.84 44.65 24.87Z" fill="#FFFFFF" fill-opacity="1.000000" fill-rule="nonzero"/>
		<path id="Vector" d="M33.29 27C33.18 27.19 33.08 27.36 33 27.48C33.39 27.56 33.28 27.22 33.29 27Z" fill="#FFFFFF" fill-opacity="1.000000" fill-rule="nonzero"/>
		<path id="Vector" d="M48.22 23.88L48.15 23.7C48.11 23.77 48.09 23.84 48.22 23.88Z" fill="#FFFFFF" fill-opacity="1.000000" fill-rule="nonzero"/>
		<path id="Vector" d="M45.18 20.69C45.21 20.77 45.25 20.84 45.3 20.9C45.31 20.88 45.33 20.87 45.34 20.85L45.18 20.69Z" fill="#FFFFFF" fill-opacity="1.000000" fill-rule="nonzero"/>
		<path id="Vector" d="M43.8 24.73L43.79 24.72L43.69 24.86C43.78 24.87 43.82 24.83 43.8 24.73Z" fill="#FFFFFF" fill-opacity="1.000000" fill-rule="nonzero"/>
		<path id="Vector" d="M46.68 23.82C46.61 23.92 46.56 24.03 46.53 24.15C46.56 24.14 46.59 24.12 46.61 24.1C46.64 24.08 46.66 24.05 46.67 24.02C46.69 23.99 46.69 23.95 46.69 23.92C46.7 23.89 46.69 23.85 46.68 23.82Z" fill="#FFFFFF" fill-opacity="1.000000" fill-rule="nonzero"/>
		<path id="Vector" d="M46.36 23.37L46.36 23.37L46.33 23.38C46.35 23.38 46.35 23.38 46.36 23.37Z" fill="#FFFFFF" fill-opacity="1.000000" fill-rule="nonzero"/>
		<path id="Vector" d="M43.85 21.28C43.91 21.23 43.97 21.19 44.04 21.13C44.01 21.12 43.99 21.12 43.97 21.13C43.95 21.14 43.93 21.15 43.91 21.16C43.89 21.17 43.88 21.19 43.87 21.21C43.86 21.23 43.85 21.25 43.85 21.28Z" fill="#FFFFFF" fill-opacity="1.000000" fill-rule="nonzero"/>
		<path id="Vector" d="M33.29 27C33.32 26.94 33.35 26.89 33.38 26.84C33.31 26.86 33.29 26.92 33.29 27Z" fill="#FFFFFF" fill-opacity="1.000000" fill-rule="nonzero"/>
		<path id="Vector" d="M24.27 28.64C24.41 28.61 24.4 28.48 24.38 28.36C24.32 28.44 24.28 28.54 24.27 28.64Z" fill="#FFFFFF" fill-opacity="1.000000" fill-rule="nonzero"/>
		<path id="Vector" d="M21.04 14.05L20.98 14.02C20.99 14.03 21 14.04 21.01 14.04C21.02 14.04 21.03 14.05 21.04 14.05Z" fill="#FFFFFF" fill-opacity="1.000000" fill-rule="nonzero"/>
		<path id="Vector" d="M26.92 15.83C26.95 15.8 26.97 15.77 26.99 15.73C26.94 15.67 26.91 15.74 26.92 15.83Z" fill="#FFFFFF" fill-opacity="1.000000" fill-rule="nonzero"/>
		<path id="Vector" d="M32.51 21.73L33.51 21.43C33.55 21.64 34.02 21.8 33.72 21.97L34.1 21.7L34.09 21.93C35.78 22.7 36.97 21.23 38.69 22.55L38.68 22.63L39.55 22.25C39.73 22.35 39.83 22.77 40.13 22.97C39.94 22.5 40.66 23.02 40.79 22.67C41.03 22.89 40.82 22.97 40.78 23.13C41.74 23.72 42.36 23.13 43.39 23.62C42.86 23.2 42.27 22.86 41.64 22.61C42.41 22.5 42.6 22.97 43.43 22.99L43.06 23.12C43.58 23.85 44.32 22.99 44.54 23.75C45.04 23.74 45.39 23.08 46.03 23.33L45.84 23.92L46.41 24.03L46.36 23.59C46.43 23.59 46.5 23.61 46.56 23.65C46.61 23.69 46.66 23.75 46.68 23.82C47.01 23.38 47.58 23.76 48.07 23.47L48.15 23.7C48.19 23.66 48.22 23.61 48.24 23.57C48.39 23.97 48.8 23.91 48.87 24.27C48.71 24.32 48.34 24.45 48.34 24.22C47.96 24.58 48.9 24.56 49.18 24.62C48.85 24.35 49.24 24.37 49.4 24.31C49.44 24.38 49.38 24.4 49.37 24.48C49.42 24.52 49.49 24.54 49.56 24.55L48.01 19.1C47.69 19.24 47.87 20.05 47.3 19.46L47.4 19.89L46.9 19.7C47.23 20.53 46.42 19.94 46.69 20.71C46.28 20.85 46.54 20.23 46.43 20.36C45.97 20.31 45.6 21.25 45.3 20.9C45.08 21.28 44.63 21.21 44.42 21.45L44.24 21.11C44.13 21.23 44.03 21.46 43.86 21.44C43.84 21.39 43.83 21.33 43.84 21.28C43.43 21.59 42.95 21.81 42.45 21.94C42.38 21.69 42.32 21.55 42.55 21.39C41.97 21.18 41.58 22.16 40.85 22.22L40.82 22.03L40.57 22.42C40.6 22.28 40.5 22.18 40.44 22.03C39.76 22.14 38.97 22.37 38.93 23.15C39.04 22.93 38.46 22.82 38.71 22.43C38.26 23.08 37.38 23.19 36.71 23.51L36.73 23.53L36.5 23.78L36.45 23.73L36.61 23.55C36.34 23.67 36.12 23.87 35.97 24.13C35.84 23.93 35.65 23.76 35.44 23.64C35.62 24.09 34.43 23.47 34.28 24.05C34.18 23.94 34.39 23.92 34.21 23.81C33.34 24.11 32.22 24.97 30.99 24.89C31.25 25.76 30.26 25.77 29.84 26.3C29.48 25.83 30.06 25.96 30.06 25.55C29.78 25.74 29.74 24.95 29.32 25.49C29.31 25.39 29.26 25.34 29.38 25.31C29.05 25.35 29.71 25.92 29.14 25.88L28.98 25.53L28.86 26.07C27.73 26.09 26.96 26.57 25.89 26.41C25.9 26.48 25.92 26.55 25.96 26.61C26 26.67 26.05 26.71 26.12 26.74C25.7 26.82 25.46 27.52 24.84 27.26L24.91 27.09C24.03 26.95 24.32 27.69 23.47 28.02C23.69 28 24.05 27.65 24.26 28.05C24.29 28.33 23.81 28.39 23.58 28.22L23.84 28.67C23.85 28.35 24.2 28.32 24.4 28.12C24.34 28.17 24.36 28.27 24.38 28.37C24.61 28.19 24.86 28.03 25.12 27.91L24.65 27.96C24.65 27.45 25.42 27.8 25.53 27.59C25.7 28.03 25.4 28.03 25.82 28.32C26.64 28.31 26.07 27.76 26.63 27.2L26.44 27.08C26.65 26.98 26.64 26.46 27.1 26.72C27.22 27.02 26.96 27.07 26.89 27.24C27.04 27.4 27.1 26.63 27.47 26.87C27.41 27.08 27.3 27.28 27.13 27.42C26.97 27.57 26.76 27.67 26.54 27.7C26.65 27.82 26.71 27.98 26.71 28.14C27.71 27.55 28.71 26.73 29.93 26.72C29.56 27.41 30.19 26.67 30.29 27.28C30.2 26.86 30.71 27.16 30.95 26.92C31.25 27.33 30.48 27.4 30.85 27.64C31.39 27.39 31.85 26.4 32.67 26.37C32.69 26.56 32.53 26.63 32.54 26.72C32.98 26.46 33.21 25.29 33.84 25.88C33.71 26.19 33.54 26.53 33.38 26.84C33.44 26.82 33.55 26.84 33.73 26.93L33.69 27.3C34.33 27.25 33.86 26.48 34.03 26L34.59 26.35C34.75 26.38 34.92 26.38 35.09 26.34C35.26 26.3 35.41 26.23 35.55 26.13C35.69 26.04 35.81 25.91 35.9 25.76C35.98 25.62 36.04 25.46 36.07 25.29C36.2 25.26 36.7 25.14 36.67 25.6C36.57 26.24 36.57 26.66 35.9 26.85C35.64 26.49 36.22 26.29 36.01 26.31C35.77 26.46 35.14 26.28 35.06 26.69L35.77 26.46C36.01 27.05 35.48 26.56 35.47 26.88C35.86 27.31 36.06 26.68 36.47 26.87L36.43 26.91C36.96 26.66 36.93 26.79 37.41 26.39C37.22 25.86 37.07 26.12 36.71 25.98C37.64 25.72 38.48 24.39 39.82 25.06L39.45 25.67C39.84 25.67 40.24 25.02 40.5 25.7C40.01 25.59 40.36 25.96 40.2 26.13L40.15 26.08C40.11 26.12 40 26.25 40.13 26.31C40.34 25.92 40.62 25.58 40.97 25.3C40.88 25.49 41.28 25.62 41.37 25.71C41.65 25.51 41.25 25.42 41.14 25.22C41.3 25.14 41.42 24.69 41.72 25C42.09 25.23 41.55 25.4 41.58 25.69L42.36 24.95L42.37 25.04C42.4 24.9 42.51 24.78 42.65 24.84C42.85 25.05 42.65 25.17 42.47 25.15C43.14 25.36 43.03 24.12 43.79 24.72L43.98 24.43C44.03 24.48 44.14 24.59 44.1 24.63L44.27 24.32C44.7 23.95 44.63 24.78 44.86 24.85L44.83 24.86C45.03 24.89 45.24 25.07 45.16 25.16L45.58 24.69L45.58 24.71C45.61 24.22 46.37 23.88 46.02 23.11C46.19 23.13 46.37 23.24 46.36 23.37C46.75 23.2 46.53 24 47.14 23.69C47.2 23.84 47.11 23.83 47.04 23.91C47.21 23.88 47.26 23.81 47.25 23.72C47.3 23.82 47.36 23.91 47.44 24C47.31 23.71 47.62 23.69 47.79 23.71L47.78 24.27C47.77 24.21 47.78 24.16 47.81 24.11C47.83 24.06 47.86 24.02 47.9 23.98C47.94 23.94 47.99 23.92 48.04 23.9C48.09 23.89 48.15 23.88 48.2 23.89L48.17 24.26C48.57 24.02 47.9 23.58 48.56 23.69L47.94 23.54C48.46 23.26 48 22.7 48.12 22.34C48.37 21.93 48.9 22.04 49.27 21.9L49.21 21.71C49.08 21.68 48.94 21.71 48.83 21.77C48.71 21.84 48.62 21.95 48.58 22.08C48.46 21.74 48.53 21.64 48.31 21.33C48.48 21.34 48.65 21.29 48.79 21.19C48.94 21.08 49.04 20.93 49.08 20.77L49.1 20.75L49.69 22.84C49.19 23.49 48.98 21.69 48.51 22.66C48.74 23.06 48.99 22.99 49.13 22.72C49.18 22.87 49.2 23.02 49.19 23.17C49.17 23.33 49.12 23.47 49.03 23.6C49.31 23.44 49.63 23.37 49.95 23.42L49.03 20.17C48.83 20.06 48.62 19.98 48.41 19.94C48.27 20.1 47.89 20.28 47.69 20.14C47.75 20.42 46.95 20.46 47.28 21.07C46.73 21.1 46.83 20.23 46.36 20.77C46.51 20.34 45.96 20.37 46.13 20C46.38 20.45 46.9 19.9 47.15 19.66L46.3 19.26C46.52 19.42 46.26 19.66 46.16 19.69L46 19.28C45.99 20.2 44.48 18.35 44.2 19.36C44.45 19.35 44.71 19.72 44.77 19.24C45.28 19.6 44.76 19.93 45.02 20.3C44.33 20.54 43.13 19.73 42.41 20.27C42.52 20.01 42.89 20.11 42.88 19.73C42.26 19.41 41.65 20.15 41.01 20.37L41.08 19.91C40.56 20.23 40.83 19.69 40.23 19.74C40.26 19.8 40.37 20 40.22 19.97C39.71 19.84 40.12 19.54 39.77 19.36C39.23 20 39.41 18.8 38.65 19.05L38.69 18.89C38.1 19.09 37.21 18.25 36.52 18.03C36.59 18.16 37.09 18.14 37.08 18.6L36.25 18.58C36.18 18.45 35.81 18.35 36.01 18.13C36.11 18.09 36.24 18.2 36.32 18.25L36.18 17.99C35.42 18.1 36.31 18.71 36.36 19.15C35.92 18.92 35.82 19.33 35.54 19.27C35.35 18.8 36.03 18.88 35.61 18.34C35.33 18.05 34.55 18.24 34.31 18.61C33.79 17.5 32.65 18.08 32.56 17.28C32.59 17.35 32.48 17.61 32.27 17.45L32.37 17.27C31.75 16.78 31.86 17.87 31.48 17.61C31.47 17.46 31.58 17.43 31.62 17.27C30.82 16.91 30.48 17.97 29.66 17.3C29.68 17.22 29.7 17.14 29.79 17.19C29.81 17.11 29.67 17.07 29.43 17.21L29.73 17.57C29.37 18.4 28.6 16.9 27.97 16.97C28.02 16.82 28.5 16.92 28.23 16.62C27.82 16.5 27.9 17.49 27.38 16.87C27.6 16.83 27.51 16.35 27.72 16.32C27.4 16.16 27.16 15.83 27.06 16.15C27.01 16.11 26.98 16.06 26.95 16.01C26.93 15.95 26.92 15.89 26.92 15.84C26.72 16.04 26.38 15.75 26.16 15.6L26.22 15.45C25.82 16.24 25.55 15.27 25.03 15.15L25.11 14.92C24.95 15 24.76 15.01 24.59 14.96C24.42 14.91 24.27 14.79 24.18 14.63L24.38 14.39C24.07 14.51 23.53 13.81 23.25 14.18C23.15 14.05 23.56 13.73 23.08 13.5C23.03 13.55 22.98 13.58 22.91 13.6C22.85 13.62 22.79 13.62 22.72 13.6C22.66 13.59 22.6 13.55 22.56 13.51C22.51 13.47 22.48 13.41 22.46 13.35C22.47 13.21 22.54 13.07 22.66 13.27C22.74 13.33 22.68 13.33 22.65 13.4L22.83 13.25C22.48 12.86 22.52 13.34 22.13 13.03C22.07 12.82 22.29 12.81 22.36 12.67C22.36 12.67 21.98 12.65 21.61 12.61L20.84 12.54C20.78 12.74 20.96 12.94 20.79 13.15L21.29 13.47C21.49 13.95 20.96 13.75 20.73 13.76L21.08 13.95C21.09 14 21.08 14.04 21.05 14.05L21.32 14.15C20.53 14.3 22 15.17 21.16 15.17C21.27 15.19 21.38 15.18 21.49 15.15C21.59 15.11 21.68 15.04 21.75 14.96C22.13 15.01 22.02 15.22 22.15 15.42L21.57 15.51C22.44 15.76 21.44 15.86 22.05 16.39C22.8 16.44 23.15 17.71 23.54 17.9C24.31 18.12 23.27 17.37 23.75 17.33C24.17 17.43 23.95 17.67 24.21 17.85L24.41 17.41C24.88 17.5 24.42 17.9 24.69 17.8C25.06 18.25 24.56 17.96 24.46 18.31C24.58 18.26 24.7 18.24 24.83 18.26C24.95 18.29 25.07 18.36 25.15 18.45C25.15 18.59 24.64 18.44 24.96 18.61C26.15 18.75 26.45 19.42 27.51 19.66L27.43 19.89C27.55 19.87 27.63 19.78 27.75 19.9L27.69 20.06C28.34 20.07 28.98 20.15 29.61 20.32L29.27 20.54L29.87 20.33L29.83 20.78C30.02 20.37 30.77 20.85 31.34 20.85L31.36 21.14L31.7 21.05L31.6 21.23C31.95 21.28 32.31 20.88 32.74 21.21C32.48 21.06 32.46 21.51 32.51 21.73ZM46.56 23.54L46.71 23.55C46.66 23.59 46.61 23.58 46.56 23.54L46.32 23.53C46.31 23.26 46.43 23.46 46.56 23.54ZM31.54 25.15L31.87 25.01C31.79 25 31.59 25.2 31.61 24.97C31.58 25.01 31.45 25.04 31.54 25.15ZM45.67 20.55L45.82 20.35L45.99 20.68L45.67 20.55ZM42.5 19.96L42.82 19.85L42.85 19.91L42.53 20.02L42.5 19.96ZM38.42 21.8C38.58 21.33 38.75 21.88 38.99 21.71C39 21.69 39.02 21.68 39.05 21.67C39.03 21.68 39.01 21.7 38.99 21.71C38.86 21.87 38.74 22.29 38.42 21.8ZM45.69 22.83C45.72 23.13 45.34 23.11 45.24 23.29C45.07 23.2 45.27 22.98 45.3 22.81C45.21 22.77 45.16 22.78 45.05 22.82C45.04 22.22 45.39 23.09 45.69 22.83L45.69 22.83ZM45.16 21.48L45.33 21.17L45.25 21.16L45.16 21.48ZM43.67 21.65C43.59 21.67 43.52 21.72 43.46 21.78C43.4 21.84 43.36 21.91 43.34 21.99C43.31 22.07 43.31 22.15 43.32 22.23C43.34 22.32 43.38 22.39 43.43 22.46C43.67 22.3 44.09 22.25 44.08 21.83C44.03 22.1 43.93 21.26 43.67 21.65ZM41.68 21.61C41.89 21.54 42.13 20.92 42.63 21.37L42.31 21.47L42.39 21.52L42.34 21.77C42.34 21.08 41.87 21.62 41.68 21.61ZM41.2 22.9C41.13 22.95 41.07 23 41.02 23.07C40.97 23.14 40.94 23.21 40.92 23.29C40.9 23.37 40.9 23.46 40.91 23.54C40.93 23.62 40.96 23.7 41 23.76C40.84 23.51 41.22 23.09 41.4 22.79C41.33 22.87 41.28 22.91 41.2 22.9ZM41.56 23.36C41.73 23.38 41.82 23.72 42 23.41C41.83 23.16 41.67 22.49 42.15 22.59C42.05 23.14 42.12 23.38 41.82 23.72L41.56 23.36ZM41.82 22.23L42.41 22.3C42.39 22.94 42.1 22.39 41.82 22.23L41.63 22.21C41.66 22.2 41.69 22.19 41.73 22.2C41.76 22.2 41.79 22.21 41.82 22.23ZM38.18 23.33L38.25 23.15C38.2 23.07 38.19 22.99 38.35 22.93L38.25 23.15C38.36 23.29 38.62 23.42 38.18 23.33ZM41.35 22.4L40.9 22.58C41.08 22.61 41.42 22.65 41.35 22.41L41.35 22.4ZM39.23 23.46C39.01 23.52 38.78 23.55 38.55 23.57C38.62 23.39 39.07 23.21 39.23 23.46ZM28.25 26.47L28.54 26.79L28.25 26.89L28.25 26.47ZM31.61 26.22L31.78 26.15L31.93 26.31L31.61 26.22ZM35.37 25.62C35.34 25.62 35.31 25.61 35.28 25.59C35.25 25.58 35.23 25.55 35.22 25.52C34.77 25.38 34.29 25.39 33.85 25.56C33.61 25.39 33.91 24.96 33.98 24.79C34.29 26.03 34.43 24.61 34.91 24.96C34.88 25.09 34.66 25.11 34.68 25.3C34.75 25.34 34.83 25.36 34.91 25.36C34.99 25.35 35.07 25.32 35.13 25.26C35.12 25.17 35.14 25.09 35.18 25.09C35.18 25.12 35.18 25.15 35.17 25.18C35.17 25.21 35.15 25.24 35.13 25.26C35.14 25.36 35.17 25.44 35.22 25.52C35.27 25.54 35.32 25.58 35.37 25.62L35.37 25.62ZM39.88 24.48C39.9 24.35 39.67 24.26 39.87 24.04C39.92 24.11 39.94 24.18 39.94 24.26C39.94 24.34 39.92 24.41 39.88 24.48C39.87 24.52 39.83 24.57 39.72 24.63C39.79 24.6 39.84 24.54 39.87 24.48L39.88 24.48ZM39.92 25.17L40.32 24.52L40.23 24.83L40.53 24.5C40.56 24.59 40.57 24.68 40.55 24.77C40.53 24.87 40.49 24.95 40.42 25.02C40.36 25.09 40.28 25.14 40.19 25.17C40.1 25.19 40 25.19 39.91 25.17L39.92 25.17ZM41.38 24.41L40.78 24.76L40.77 24.69L40.73 24.71L40.72 24.39L40.76 24.69L41.38 24.41ZM46.65 22.28L46.99 22.23C46.93 22.33 46.85 22.42 46.75 22.49C46.66 22.56 46.55 22.61 46.44 22.64C47.14 23.36 46.5 22.46 47.21 22.62C46.55 22.8 47.03 23.24 47.21 23.56C47.13 23.05 48.1 23.09 47.41 22.18C47.27 22.44 46.56 21.63 46.65 22.29L46.65 22.28ZM47.27 21.38L46.82 21.38L47.3 21.45L47.27 21.38ZM34.65 18.66C34.74 18.24 35.41 18.78 35.4 19.01C35.3 18.82 34.97 18.78 34.65 18.66ZM30.09 17.7C30.36 17.86 30.69 17.39 30.84 17.94L30.31 18.01C30.21 17.81 30.03 17.94 30.09 17.7ZM26.78 16.63L26.61 17.09L26.79 17.06L26.78 16.63ZM27.34 16.24C27.25 16.18 26.89 16.19 27 16.45L27.34 16.24ZM23.89 15.44L24.11 15.07L23.89 14.95L23.89 15.44ZM24.1 15.84C24.17 15.81 24.2 15.72 24.22 15.61C24.34 15.53 24.54 15.56 24.73 15.76C24.69 15.98 24.56 15.79 24.44 15.8C24.53 15.85 24.66 16.05 24.84 16.03C24.65 15.56 24.79 15.61 24.77 15.26C24.27 14.86 24.28 15.31 24.22 15.61C24.18 15.63 24.15 15.67 24.13 15.7C24.11 15.74 24.1 15.79 24.1 15.83L24.1 15.84ZM25.93 16.64C25.88 16.57 25.85 16.49 25.83 16.4C25.5 16.16 25.17 15.92 25.52 15.63L25.82 15.8C25.68 15.75 25.71 15.82 25.68 15.89C25.91 16.14 26.05 15.9 26.21 15.87C26.12 16.01 25.77 16.09 25.83 16.4C25.92 16.47 26.01 16.53 26.08 16.6C26.14 16.56 26.2 16.55 26.27 16.72L26.24 16.79C26.2 16.72 26.15 16.65 26.08 16.6C26.03 16.64 25.98 16.7 25.93 16.64ZM23.82 16.07C23.79 16.14 23.84 16.28 23.75 16.36L23.57 16.37C23.35 16.11 23.62 16.02 23.82 16.07ZM33.49 18.73C33.54 18.71 34.05 18.85 34.02 18.56L34.21 19.02C33.95 18.88 33.72 19.18 33.85 19.29C33.62 18.98 33.44 19.12 33.49 18.73ZM46.5 21.26C46.37 21.39 45.68 20.93 45.66 21.47C45.36 20.81 46.14 21.08 46.5 21.26L46.5 21.26ZM46.65 21.9C46.7 21.89 46.76 21.9 46.81 21.91C47 21.82 46.92 21.37 47.29 21.68C47.22 21.78 47.06 21.61 46.99 21.71C47.04 21.99 46.99 21.93 46.81 21.91C46.78 21.92 46.76 21.92 46.73 21.92C46.7 21.92 46.67 21.91 46.65 21.9L46.65 21.9ZM39.36 20.95L39.73 21.05L39.91 20.69L39.36 20.95ZM35.89 20.75L36.19 20.73L36.07 20.62C36.06 20.51 35.98 20.34 36.06 20.28C36.1 20.28 36.15 20.28 36.2 20.27C36.13 20.25 36.08 20.26 36.06 20.28C35.83 20.27 35.55 20.18 35.55 20.48C35.63 20.38 36.05 20.47 36.05 20.7L35.89 20.75ZM28.56 19.31C28.73 19.27 28.75 19.2 29.03 19.5C28.94 19.52 28.85 19.51 28.76 19.48C28.68 19.44 28.61 19.39 28.56 19.31ZM37.71 21.43C37.72 21.2 38.12 21.37 37.96 21.05L37.78 20.96C38.04 21.1 37.86 20.4 38.26 20.79L38.03 20.72C38.33 20.92 37.74 21.12 38.18 21.35C38.36 21.45 37.93 21.59 37.71 21.43ZM28.02 19.78C28.28 19.8 28.17 19.17 28.62 19.59C28.3 19.58 28.38 20.15 28.02 19.78ZM35.27 21.86L35.3 21.92L35.63 21.82L35.6 21.75L35.27 21.86Z" fill="#FFFFFF" fill-opacity="1.000000" fill-rule="nonzero"/>
		<path id="Vector" d="M27.95 16.39C27.88 16.34 27.8 16.31 27.72 16.32C27.79 16.35 27.87 16.38 27.95 16.39Z" fill="#FFFFFF" fill-opacity="1.000000" fill-rule="nonzero"/>
		<path id="Vector" d="M47.58 19.98C47.59 20.01 47.6 20.04 47.62 20.07C47.64 20.1 47.67 20.13 47.7 20.15C47.68 20.08 47.64 20.02 47.58 19.98Z" fill="#FFFFFF" fill-opacity="1.000000" fill-rule="nonzero"/>
		<path id="Vector" d="M48.38 19.93L48.41 19.94L48.43 19.91L48.38 19.93Z" fill="#FFFFFF" fill-opacity="1.000000" fill-rule="nonzero"/>
		<path id="Vector" d="M24.65 28.97C24.64 29.39 24.83 29 24.96 28.98C24.83 29 24.68 28.75 24.65 28.97Z" fill="#FFFFFF" fill-opacity="1.000000" fill-rule="nonzero"/>
		<path id="Vector" d="M25.4 28.12C25.39 28.19 25.36 28.24 25.32 28.29C25.29 28.34 25.24 28.39 25.18 28.41C25.26 28.41 25.34 28.34 25.4 28.12Z" fill="#FFFFFF" fill-opacity="1.000000" fill-rule="nonzero"/>
		<path id="Vector" d="M24.65 28.47C24.83 28.51 25.01 28.49 25.18 28.41C25.05 28.42 24.88 28.3 24.65 28.47Z" fill="#FFFFFF" fill-opacity="1.000000" fill-rule="nonzero"/>
		<path id="Vector" d="M28.15 27.62C28.08 27.89 27.73 27.83 27.73 27.83C28.48 27.9 27.77 28.3 27.79 28.49C28.17 28.31 28.05 28.02 28.15 27.62Z" fill="#FFFFFF" fill-opacity="1.000000" fill-rule="nonzero"/>
		<path id="Vector" d="M28.97 27.3C28.9 27.31 28.83 27.31 28.77 27.29C28.8 27.31 28.83 27.32 28.87 27.32C28.9 27.32 28.94 27.31 28.97 27.3Z" fill="#FFFFFF" fill-opacity="1.000000" fill-rule="nonzero"/>
		<path id="Vector" d="M29.3 27.46C29.51 27.36 29.48 27.07 29.5 26.85C29.15 26.72 29.15 27.18 28.97 27.3C29.13 27.26 29.28 27.2 29.3 27.46Z" fill="#FFFFFF" fill-opacity="1.000000" fill-rule="nonzero"/>
		<path id="Vector" d="M36.83 27.02C36.78 27.06 36.66 27.09 36.72 27.24L37.1 27.15C37.21 27.02 36.91 27.03 36.83 27.02Z" fill="#FFFFFF" fill-opacity="1.000000" fill-rule="nonzero"/>
		<path id="Vector" d="M37.92 25.95C38.21 25.85 38.22 26.27 38.33 26.14L38.1 25.65L37.92 25.95Z" fill="#FFFFFF" fill-opacity="1.000000" fill-rule="nonzero"/>
		<path id="Vector" d="M36.68 23.47L36.61 23.54L36.71 23.5L36.68 23.47Z" fill="#FFFFFF" fill-opacity="1.000000" fill-rule="nonzero"/>
		<path id="Vector" d="M39.58 26.06L39.61 26.67C39.81 26.46 39.62 26.02 39.58 26.06Z" fill="#FFFFFF" fill-opacity="1.000000" fill-rule="nonzero"/>
		<path id="Vector" d="M40.89 26.13L40.79 26.34L41.27 26.03L40.89 26.13Z" fill="#FFFFFF" fill-opacity="1.000000" fill-rule="nonzero"/>
		<path id="Vector" d="M42.16 25.48L42.26 25.59L42.58 25.34L42.16 25.48Z" fill="#FFFFFF" fill-opacity="1.000000" fill-rule="nonzero"/>
		<path id="Vector" d="M40.87 19.29C40.87 19.75 41.53 19.68 41.74 19.84C41.53 19.22 41.22 19.93 40.87 19.29Z" fill="#FFFFFF" fill-opacity="1.000000" fill-rule="nonzero"/>
		<path id="Vector" d="M28.54 16.76L29.19 16.83C28.67 16.51 29.05 16.79 28.54 16.76Z" fill="#FFFFFF" fill-opacity="1.000000" fill-rule="nonzero"/>
	</mask>
	<g mask="url(#mask5_632)">
		<path id="Vector" d="M21.45 12.38C21.35 13.08 21.55 13.88 22.05 14.38C23.55 15.68 25.14 16.88 26.84 17.78C27.34 18.08 27.94 18.28 28.44 18.28C28.64 18.28 29.44 18.68 29.54 18.68C30.24 18.88 30.04 18.78 30.64 18.88C31.24 18.98 31.94 18.88 32.54 18.98C32.74 18.98 32.94 19.08 33.14 19.08C33.64 19.18 34.04 19.18 34.54 19.28C34.64 19.28 34.74 19.28 34.84 19.38C34.94 19.38 35.04 19.48 35.14 19.58C35.24 19.58 35.44 19.58 35.54 19.58C35.64 19.58 35.84 19.68 35.94 19.78C35.94 19.78 35.84 19.68 35.84 19.58C39.14 20.38 42.33 20.58 45.63 21.08C46.33 21.18 47.63 20.68 48.33 20.78C50.13 24.08 47.43 22.78 46.63 22.48C46.43 22.38 46.23 22.58 46.03 22.78C45.93 22.88 46.73 22.58 45.23 23.08C45.03 23.08 44.33 22.68 44.13 22.68C43.33 22.98 43.73 23.48 42.93 23.78C42.43 23.98 41.13 24.58 40.63 24.58C37.94 24.88 35.54 24.98 33.04 25.88C31.74 26.38 30.54 26.48 29.24 26.88C28.94 26.98 28.64 27.08 28.24 27.08C28.04 27.08 27.84 27.08 27.64 27.08C25.14 26.88 23.15 28.88 20.75 29.48" stroke="#202020" stroke-opacity="1.000000" stroke-width="3.998648" stroke-linejoin="round" stroke-dasharray="61.979 61.979"/>
	</g>
</svg>
