<svg width="52.000000" height="45.000000" viewBox="0 0 52 45" fill="none" xmlns="http://www.w3.org/2000/svg" xmlns:xlink="http://www.w3.org/1999/xlink">
	<desc>
			Created with Pixso.
	</desc>
	<defs/>
	<mask id="mask5_503" mask-type="alpha" maskUnits="userSpaceOnUse" x="4.631104" y="20.546875" width="46.408936" height="4.424988">
		<path id="Vector" d="M6.1 22.52C6.07 22.5 6.03 22.48 6 22.47C6.11 22.45 6.16 22.45 6.1 22.52Z" fill="#FFFFFF" fill-opacity="1.000000" fill-rule="nonzero"/>
		<path id="Vector" d="M4.63 22.34C5.09 22.28 5.56 22.32 6 22.47C5.63 22.55 4.62 22.9 4.63 22.34Z" fill="#FFFFFF" fill-opacity="1.000000" fill-rule="nonzero"/>
		<path id="Vector" d="M5.96 23.44L5.51 23.29C5.83 23.12 5.72 23.39 5.96 23.44Z" fill="#FFFFFF" fill-opacity="1.000000" fill-rule="nonzero"/>
		<path id="Vector" d="M5.91 22.91L5.98 22.7L6.19 22.9L5.91 22.91Z" fill="#FFFFFF" fill-opacity="1.000000" fill-rule="nonzero"/>
		<path id="Vector" d="M25.05 21.07C25.02 20.97 25.03 20.86 25.07 20.76L25.05 21.07Z" fill="#FFFFFF" fill-opacity="1.000000" fill-rule="nonzero"/>
		<path id="Vector" d="M25.73 21.76C25.8 21.78 25.87 21.8 25.95 21.81C25.91 21.82 25.87 21.82 25.83 21.81C25.79 21.8 25.76 21.78 25.73 21.76Z" fill="#FFFFFF" fill-opacity="1.000000" fill-rule="nonzero"/>
		<path id="Vector" d="M24.23 21.1L24.44 21.07C24.38 21.1 24.3 21.11 24.23 21.1Z" fill="#FFFFFF" fill-opacity="1.000000" fill-rule="nonzero"/>
		<path id="Vector" d="M14.58 21.82C14.43 21.67 14.28 21.54 14.17 21.45C14.57 21.28 14.53 21.62 14.58 21.82Z" fill="#FFFFFF" fill-opacity="1.000000" fill-rule="nonzero"/>
		<path id="Vector" d="M29.15 24.14L29.24 23.97C29.28 24.05 29.28 24.12 29.15 24.14Z" fill="#FFFFFF" fill-opacity="1.000000" fill-rule="nonzero"/>
		<path id="Vector" d="M25.46 23.92C25.47 23.84 25.5 23.77 25.54 23.7C25.55 23.71 25.57 23.73 25.59 23.74L25.46 23.92Z" fill="#FFFFFF" fill-opacity="1.000000" fill-rule="nonzero"/>
		<path id="Vector" d="M23.6 21.37L23.59 21.39L23.45 21.29C23.55 21.25 23.6 21.28 23.6 21.37Z" fill="#FFFFFF" fill-opacity="1.000000" fill-rule="nonzero"/>
		<path id="Vector" d="M30.32 24.27C30.37 24.38 30.41 24.51 30.42 24.63C30.36 24.6 30.32 24.54 30.3 24.47C30.28 24.4 30.29 24.33 30.32 24.27Z" fill="#FFFFFF" fill-opacity="1.000000" fill-rule="nonzero"/>
		<path id="Vector" d="M25.94 21.81L25.94 21.81L25.91 21.81C25.92 21.8 25.93 21.81 25.94 21.81Z" fill="#FFFFFF" fill-opacity="1.000000" fill-rule="nonzero"/>
		<path id="Vector" d="M24.23 23.74C24.31 23.77 24.38 23.79 24.47 23.82C24.45 23.83 24.42 23.84 24.4 23.84C24.38 23.84 24.35 23.84 24.33 23.83C24.31 23.82 24.29 23.81 24.27 23.8C24.25 23.78 24.24 23.76 24.23 23.74Z" fill="#FFFFFF" fill-opacity="1.000000" fill-rule="nonzero"/>
		<path id="Vector" d="M14.52 21.73L14.64 21.86C14.61 21.86 14.58 21.84 14.56 21.82C14.53 21.8 14.52 21.76 14.52 21.73Z" fill="#FFFFFF" fill-opacity="1.000000" fill-rule="nonzero"/>
		<path id="Vector" d="M7.51 22.08C7.67 22.08 7.68 22.2 7.68 22.31C7.6 22.26 7.54 22.18 7.51 22.08Z" fill="#FFFFFF" fill-opacity="1.000000" fill-rule="nonzero"/>
		<path id="Vector" d="M50.11 22.33L50.17 22.34C50.16 22.34 50.15 22.34 50.14 22.34C50.13 22.34 50.12 22.34 50.11 22.33Z" fill="#FFFFFF" fill-opacity="1.000000" fill-rule="nonzero"/>
		<path id="Vector" d="M44.24 21.73C44.22 21.69 44.2 21.64 44.19 21.6C44.26 21.55 44.26 21.63 44.24 21.73Z" fill="#FFFFFF" fill-opacity="1.000000" fill-rule="nonzero"/>
		<path id="Vector" d="M41.18 24.97L40.5 24.55C40.44 24.71 40.09 24.75 40.28 24.93L40.04 24.66L40.02 24.84C38.72 25.14 37.99 23.8 36.59 24.56L36.6 24.62L35.99 24.19C35.84 24.23 35.73 24.55 35.49 24.66C35.67 24.32 35.09 24.61 35.03 24.32C34.82 24.46 34.97 24.55 34.99 24.68C34.22 24.99 33.81 24.43 33.01 24.65C33.44 24.41 33.91 24.24 34.4 24.14C33.84 23.93 33.66 24.27 33.04 24.16L33.3 24.31C32.85 24.81 32.38 24.02 32.14 24.58C31.77 24.5 31.57 23.93 31.08 24.02L31.16 24.52L30.73 24.52L30.8 24.18C30.75 24.17 30.7 24.17 30.65 24.2C30.61 24.22 30.57 24.26 30.55 24.31C30.34 23.92 29.88 24.12 29.55 23.82L29.46 23.99C29.44 23.95 29.42 23.91 29.41 23.87C29.26 24.16 28.96 24.05 28.88 24.32C28.99 24.39 29.26 24.54 29.28 24.36C29.53 24.7 28.83 24.55 28.61 24.55C28.88 24.39 28.59 24.35 28.47 24.28C28.44 24.32 28.48 24.35 28.48 24.41C28.04 24.59 28.09 23.74 27.68 24.33L27.69 24.01L27.32 24.24C27.43 23.61 26.88 24.18 26.96 23.59C26.6 23.57 26.93 23.95 26.81 23.88C26.44 24.01 25.97 23.43 25.79 23.73C25.54 23.51 25.19 23.65 24.97 23.52L24.89 23.79C24.77 23.72 24.65 23.59 24.51 23.64C24.5 23.68 24.51 23.72 24.53 23.75C24.13 23.62 23.7 23.56 23.28 23.57C23.26 23.75 23.23 23.86 23.46 23.92C23.01 24.18 22.52 23.58 21.91 23.68L21.92 23.81L21.65 23.59C21.7 23.68 21.63 23.77 21.61 23.88C21.03 23.94 20.34 23.93 20.18 23.39C20.3 23.52 19.85 23.71 20.13 23.93C19.64 23.57 18.9 23.65 18.29 23.56L18.31 23.54L18.08 23.41L18.05 23.46L18.21 23.55C17.98 23.52 17.76 23.43 17.59 23.27C17.51 23.44 17.39 23.59 17.24 23.7C17.31 23.37 16.44 24.01 16.22 23.64C16.16 23.73 16.33 23.7 16.2 23.82C15.43 23.77 14.37 23.38 13.38 23.65C13.45 23 12.63 23.18 12.2 22.88C11.99 23.27 12.44 23.08 12.51 23.36C12.25 23.28 12.35 23.84 11.92 23.54C11.92 23.61 11.89 23.65 12 23.65C11.72 23.68 12.16 23.17 11.7 23.3L11.63 23.57L11.44 23.22C10.52 23.4 9.8 23.21 8.96 23.51C8.93 23.45 8.97 23.31 9.09 23.24C8.74 23.25 8.42 22.81 7.96 23.1L8.04 23.2C7.35 23.45 7.46 22.89 6.72 22.81C6.9 22.78 7.25 22.97 7.35 22.65C7.33 22.45 6.93 22.49 6.77 22.65L6.91 22.29C6.97 22.51 7.26 22.48 7.46 22.58C7.41 22.55 7.41 22.48 7.4 22.41C7.57 22.52 7.83 22.51 8.08 22.6L7.68 22.64C7.77 22.99 8.34 22.62 8.46 22.75C8.53 22.41 8.28 22.46 8.58 22.18C9.25 22.05 8.88 22.53 9.42 22.82L9.29 22.94C9.48 22.98 9.56 23.33 9.89 23.07C9.94 22.85 9.72 22.86 9.63 22.75C9.72 22.61 9.9 23.14 10.16 22.91C10.05 22.6 9.6 22.48 9.27 22.49C9.33 22.39 9.36 22.27 9.34 22.16C10.25 22.52 11.23 22.66 12.2 22.57C11.79 22.16 12.42 22.57 12.4 22.12C12.4 22.43 12.76 22.13 13 22.26C13.18 21.92 12.53 22 12.8 21.77C13.28 21.84 13.83 22.45 14.5 22.32C14.49 22.19 14.34 22.17 14.33 22.11C14.74 22.2 15.13 22.98 15.54 22.45C15.38 22.26 15.18 22.06 15 21.87C15.1 21.86 15.2 21.81 15.27 21.74L15.17 21.5C15.71 21.42 15.45 22.03 15.67 22.34L16.06 21.99C16.31 21.88 16.59 21.86 16.85 21.95C17.11 22.03 17.33 22.21 17.46 22.45C17.57 22.44 18 22.43 17.9 22.12C17.7 21.7 17.63 21.41 17.05 21.4C16.9 21.7 17.41 21.73 17.24 21.76C17.01 21.7 16.53 21.93 16.39 21.67L17.01 21.7C17.1 21.25 16.75 21.68 16.69 21.46C16.94 21.09 17.2 21.49 17.51 21.28L17.47 21.26C17.95 21.34 17.9 21.25 18.36 21.44C18.3 21.85 18.13 21.7 17.86 21.86C18.66 21.86 19.59 22.62 20.56 21.91L20.15 21.56C20.47 21.49 20.91 21.86 21 21.34C20.62 21.51 20.84 21.19 20.68 21.1L20.65 21.15C20.61 21.13 20.5 21.06 20.6 20.99C20.84 21.23 21.13 21.41 21.45 21.53C21.35 21.42 21.66 21.25 21.71 21.17C21.97 21.26 21.66 21.4 21.61 21.56C21.75 21.58 21.93 21.87 22.12 21.59C22.39 21.36 21.91 21.35 21.89 21.15L22.65 21.52L22.65 21.45C22.66 21.47 22.67 21.5 22.69 21.51C22.71 21.53 22.73 21.54 22.76 21.55C22.78 21.56 22.81 21.56 22.84 21.56C22.86 21.56 22.89 21.55 22.91 21.54C23.04 21.35 22.85 21.31 22.71 21.36C23.22 21.09 23.35 21.96 23.86 21.4L24.07 21.56C24.1 21.52 24.17 21.43 24.13 21.41L24.33 21.58C24.75 21.76 24.54 21.2 24.71 21.11L24.69 21.11C24.84 21.05 24.99 20.88 24.9 20.84L25.33 21.08L25.32 21.07C25.43 21.4 26.12 21.48 25.97 22.08C26.11 22.03 26.24 21.92 26.2 21.84C26.55 21.88 26.23 21.37 26.78 21.47C26.8 21.35 26.73 21.38 26.65 21.33C26.81 21.32 26.86 21.36 26.87 21.43C26.89 21.35 26.92 21.27 26.97 21.2C26.92 21.42 27.17 21.37 27.31 21.33L27.19 20.95C27.28 21.13 27.36 21.17 27.61 21.12L27.51 20.88C27.88 20.96 27.42 21.39 27.94 21.19L27.46 21.41C27.94 21.5 27.66 21.97 27.83 22.2C28.27 22.58 29.07 21.9 29.28 22.66C29.4 22.41 29.36 22.32 29.56 22.12C29.42 22.1 29.3 22.03 29.2 21.93C29.11 21.83 29.05 21.7 29.03 21.56C28.48 21.18 28.65 22.49 28.09 21.9C28.2 21.59 28.42 21.59 28.58 21.74C28.66 21.47 28.46 21.3 28.34 21.16C28.71 21.31 29.36 20.98 29.6 21.02C29.69 21.16 29.96 21.37 30.12 21.29C30.05 21.49 30.64 21.65 30.34 22.07C30.75 22.19 30.75 21.49 31.06 21.98C30.98 21.62 31.39 21.73 31.29 21.42C31.07 21.73 30.73 21.22 30.56 20.99L31.23 20.81C31.05 20.9 31.22 21.13 31.3 21.17L31.45 20.87C31.37 21.59 32.67 20.38 32.78 21.21C32.59 21.17 32.36 21.42 32.36 21.03C31.95 21.24 32.31 21.57 32.08 21.82C32.58 22.11 33.54 21.66 34.03 22.2C33.97 21.98 33.68 22 33.73 21.71C34.22 21.55 34.61 22.23 35.06 22.5L35.06 22.12C35.42 22.46 35.27 21.98 35.71 22.12C35.68 22.17 35.58 22.3 35.69 22.3C36.09 22.28 35.8 21.99 36.09 21.9C36.43 22.48 36.41 21.51 36.95 21.83L36.94 21.7C37.35 21.95 38.1 21.44 38.63 21.38C38.57 21.47 38.21 21.37 38.16 21.74L38.79 21.85C38.85 21.76 39.14 21.74 39.01 21.54C38.93 21.49 38.83 21.56 38.76 21.58L38.9 21.4C39.46 21.6 38.73 21.94 38.65 22.28C39 22.17 39.03 22.51 39.25 22.51C39.43 22.17 38.92 22.12 39.28 21.76C39.52 21.58 40.09 21.86 40.22 22.2C40.73 21.42 41.5 22.08 41.67 21.48C41.63 21.52 41.69 21.75 41.86 21.66L41.81 21.5C42.33 21.24 42.11 22.07 42.43 21.94C42.45 21.82 42.38 21.78 42.36 21.64C43 21.52 43.11 22.43 43.8 22.08C43.79 22.01 43.79 21.94 43.72 21.96C43.71 21.89 43.82 21.9 43.98 22.06L43.71 22.28C43.84 23 44.62 22 45.07 22.21C45.06 22.08 44.69 22.05 44.93 21.87C45.25 21.88 45.03 22.64 45.5 22.29C45.35 22.2 45.5 21.84 45.35 21.76C45.61 21.72 45.84 21.52 45.86 21.8C45.9 21.78 45.93 21.75 45.96 21.71C45.99 21.68 46 21.63 46.01 21.59C46.12 21.81 46.41 21.67 46.6 21.61L46.59 21.48C46.72 22.2 47.1 21.53 47.5 21.59L47.48 21.38C47.63 21.48 47.83 21.73 48.2 21.44L48.11 21.19C48.3 21.38 48.85 21.01 48.95 21.4C49.05 21.33 48.84 20.94 49.24 20.93C49.29 21.09 49.55 21.25 49.71 21.03C49.74 20.92 49.73 20.78 49.59 20.89C49.52 20.91 49.56 20.94 49.57 21.01L49.48 20.82C49.82 20.65 49.67 21.01 50.02 20.9C50.12 20.77 49.97 20.67 49.96 20.54L51.04 21.02C51.01 21.2 50.84 21.29 50.89 21.51L50.47 21.57C50.2 21.86 50.6 21.91 50.75 22.01L50.46 22.02C50.44 22.05 50.44 22.09 50.46 22.11L50.25 22.09C50.71 22.51 49.54 22.61 50.06 22.94C49.99 22.91 49.92 22.85 49.86 22.78C49.81 22.71 49.77 22.63 49.75 22.55C49.49 22.45 49.51 22.65 49.37 22.77L49.72 23.05C49.1 22.92 49.7 23.36 49.18 23.55C48.7 23.31 48.16 24.21 47.87 24.22C47.33 24.14 48.17 23.89 47.87 23.7C47.58 23.65 47.67 23.9 47.46 23.96L47.43 23.55C47.1 23.48 47.32 23.94 47.16 23.78C46.82 24.02 47.21 23.93 47.2 24.25C47.15 24.16 46.89 23.99 46.72 24.15C46.7 24.26 47.06 24.29 46.81 24.33C46 24.09 45.68 24.53 44.93 24.45L44.94 24.65C44.87 24.61 44.82 24.51 44.73 24.58L44.73 24.71C44.3 24.56 43.85 24.47 43.39 24.46L43.59 24.71L43.21 24.41L43.17 24.77C43.1 24.41 42.51 24.62 42.11 24.51L42.05 24.73L41.82 24.59L41.87 24.75C41.62 24.72 41.41 24.34 41.07 24.51C41.28 24.45 41.24 24.81 41.18 24.97ZM30.66 24.11L30.55 24.09C30.56 24.11 30.58 24.12 30.6 24.12C30.62 24.12 30.65 24.12 30.66 24.11L30.84 24.14C30.87 23.92 30.77 24.06 30.66 24.11ZM13.79 23.37L14.08 23.41C14.02 23.43 13.82 23.32 13.87 23.48C13.84 23.46 13.73 23.46 13.79 23.37ZM31.6 21.91L31.5 21.73L31.35 21.95L31.6 21.91ZM34.01 21.93L33.78 21.79L33.75 21.84L33.98 21.98L34.01 21.93ZM36.87 24.02C36.8 23.62 36.62 24.03 36.46 23.86C36.45 23.84 36.44 23.83 36.42 23.82C36.43 23.84 36.45 23.85 36.46 23.86C36.54 24 36.58 24.35 36.87 24.02L36.87 24.02ZM31.37 23.69C31.32 23.91 31.61 23.96 31.66 24.11C31.8 24.07 31.67 23.87 31.66 23.73C31.73 23.71 31.77 23.73 31.85 23.78C31.91 23.3 31.57 23.93 31.37 23.69ZM25.56 23.36L25.77 23.54L25.69 23.56L25.56 23.36ZM24.32 23.53C24.26 23.54 24.2 23.52 24.14 23.5C24.08 23.47 24.04 23.43 24 23.38C23.97 23.33 23.95 23.27 23.94 23.2C23.94 23.14 23.95 23.08 23.98 23.02C24.2 23.08 24.56 23.04 24.63 23.33C24.53 23.15 24.6 23.75 24.32 23.53L24.32 23.53ZM34.47 23.35C34.32 23.26 34.2 22.74 33.79 23.01L34.02 23.15L33.95 23.17L33.97 23.37C34.03 22.83 34.32 23.33 34.47 23.35ZM22.07 23.14C22.01 23.13 21.96 23.1 21.91 23.07C21.86 23.03 21.82 22.99 21.79 22.93C21.76 22.88 21.74 22.82 21.73 22.76C21.73 22.7 21.74 22.64 21.76 22.58C21.67 22.79 22.06 23 22.26 23.18C22.18 23.13 22.14 23.11 22.07 23.14ZM22.28 22.75C22.42 22.71 22.43 22.46 22.63 22.64C22.55 22.84 22.53 23.33 22.91 23.17C22.73 22.81 22.74 22.63 22.43 22.46L22.28 22.75ZM22.7 23.48L23.18 23.32C23.04 22.89 22.91 23.32 22.7 23.48L22.55 23.53C22.58 23.54 22.6 23.53 22.63 23.52C22.66 23.52 22.68 23.5 22.7 23.48L22.7 23.48ZM19.53 23.41L19.62 23.52C19.59 23.58 19.6 23.63 19.73 23.65L19.62 23.52C19.68 23.4 19.87 23.27 19.53 23.41L19.53 23.41ZM22.29 23.45L21.88 23.41C22.02 23.36 22.3 23.27 22.29 23.45ZM20.37 23.13C20.18 23.13 19.99 23.15 19.8 23.18C19.88 23.29 20.28 23.33 20.37 23.12L20.37 23.13ZM10.88 23.04L11.06 22.77L10.8 22.75L10.88 23.04ZM13.66 22.61L13.81 22.63L13.9 22.49L13.66 22.61ZM16.83 22.35C16.81 22.35 16.78 22.37 16.76 22.38C16.75 22.4 16.73 22.42 16.72 22.44C16.38 22.63 15.99 22.71 15.6 22.67C15.43 22.84 15.75 23.07 15.84 23.18C15.87 22.26 16.24 23.21 16.57 22.89C16.52 22.8 16.35 22.83 16.33 22.7C16.38 22.66 16.44 22.63 16.5 22.62C16.57 22.61 16.63 22.62 16.69 22.64C16.7 22.71 16.73 22.76 16.77 22.76C16.77 22.73 16.76 22.71 16.75 22.69C16.73 22.67 16.71 22.65 16.69 22.64C16.68 22.58 16.69 22.51 16.72 22.45C16.76 22.42 16.8 22.39 16.83 22.35ZM20.71 22.3C20.75 22.39 20.58 22.49 20.78 22.6C20.8 22.55 20.81 22.49 20.8 22.44C20.79 22.39 20.76 22.34 20.71 22.3C20.7 22.27 20.66 22.25 20.56 22.22C20.62 22.23 20.67 22.26 20.71 22.3ZM20.62 21.82L21.06 22.19L20.93 21.99L21.24 22.16C21.24 22.09 21.22 22.02 21.19 21.96C21.15 21.9 21.1 21.84 21.03 21.81C20.97 21.77 20.9 21.76 20.83 21.76C20.75 21.76 20.68 21.78 20.62 21.82ZM21.95 22.06L21.4 21.94L21.4 21.99L21.37 21.98L21.42 22.21L21.4 21.99L21.95 22.06ZM26.64 22.52L26.92 22.49C26.78 22.37 26.59 22.31 26.4 22.32C26.84 21.69 26.48 22.43 27.03 22.18C26.46 22.18 26.77 21.79 26.86 21.54C26.89 21.9 27.68 21.69 27.28 22.44C27.12 22.29 26.69 22.99 26.64 22.52ZM30.34 22.32L30.67 22.38L30.31 22.36L30.34 22.32ZM39.97 22.18C39.94 21.84 39.4 22.15 39.38 22.33C39.47 22.19 39.72 22.22 39.97 22.18ZM43.43 22.29C43.22 22.36 43.04 21.93 42.86 22.33L43.23 22.49C43.33 22.36 43.45 22.5 43.43 22.29ZM45.97 22.25L46 22.66L45.89 22.59L45.97 22.25ZM45.65 21.79C45.72 21.77 45.98 21.87 45.85 22.04L45.65 21.79ZM48.22 22.17L48.16 21.8L48.34 21.78L48.22 22.17ZM47.99 22.41C47.95 22.37 47.95 22.28 47.96 22.19C47.89 22.09 47.75 22.05 47.58 22.15C47.56 22.33 47.69 22.22 47.77 22.27C47.7 22.29 47.56 22.4 47.45 22.33C47.67 22.02 47.57 22.01 47.65 21.74C48.09 21.59 47.98 21.93 47.96 22.19C47.98 22.22 47.99 22.26 48 22.3C48 22.34 48 22.37 47.99 22.41L47.99 22.41ZM46.56 22.49C46.61 22.45 46.65 22.4 46.68 22.34C46.96 22.24 47.24 22.15 47.05 21.83L46.8 21.86C46.91 21.87 46.88 21.91 46.88 21.98C46.68 22.11 46.63 21.88 46.51 21.81C46.55 21.94 46.78 22.11 46.68 22.33C46.61 22.36 46.54 22.39 46.47 22.42C46.44 22.38 46.4 22.35 46.31 22.46L46.32 22.53C46.36 22.48 46.41 22.45 46.47 22.42C46.49 22.47 46.51 22.52 46.56 22.49ZM48.12 22.69C48.12 22.76 48.06 22.84 48.1 22.94L48.21 23.01C48.42 22.88 48.26 22.71 48.12 22.69L48.12 22.69ZM40.82 22.44C40.79 22.41 40.39 22.43 40.45 22.2L40.26 22.54C40.47 22.47 40.6 22.75 40.5 22.81C40.69 22.61 40.81 22.75 40.82 22.43L40.82 22.44ZM30.92 22.34C31 22.45 31.55 22.2 31.52 22.63C31.8 22.16 31.19 22.25 30.92 22.34L30.92 22.34ZM30.75 22.81C30.71 22.8 30.67 22.79 30.63 22.79C30.5 22.7 30.59 22.36 30.29 22.54C30.33 22.63 30.47 22.52 30.51 22.61C30.44 22.82 30.49 22.78 30.62 22.79C30.64 22.8 30.66 22.81 30.68 22.81C30.7 22.82 30.73 22.81 30.75 22.81L30.75 22.81ZM36.26 23.2L35.97 23.22L35.86 22.9L36.26 23.2ZM38.84 23.61L38.62 23.54L38.72 23.47C38.74 23.39 38.82 23.27 38.77 23.21C38.73 23.21 38.69 23.19 38.66 23.18C38.68 23.17 38.7 23.18 38.72 23.18C38.73 23.19 38.75 23.2 38.77 23.21C38.93 23.24 39.15 23.22 39.11 23.45C39.07 23.36 38.75 23.36 38.73 23.54L38.84 23.61ZM44.28 23.91C44.16 23.84 44.16 23.78 43.92 23.95C43.98 23.99 44.04 24 44.11 23.99C44.17 23.99 44.23 23.96 44.28 23.91ZM37.42 23.84C37.44 23.66 37.12 23.73 37.28 23.5L37.42 23.46C37.21 23.53 37.42 23.01 37.08 23.25L37.26 23.23C37.02 23.34 37.43 23.59 37.08 23.71C36.95 23.75 37.25 23.93 37.43 23.84L37.42 23.84ZM44.57 24.42C44.39 24.37 44.56 23.9 44.18 24.12C44.41 24.19 44.26 24.61 44.57 24.42ZM39.17 24.58L39.14 24.62L38.92 24.48L38.95 24.44L39.17 24.58Z" fill="#FFFFFF" fill-opacity="1.000000" fill-rule="nonzero"/>
		<path id="Vector" d="M43.13 21.98C43.16 21.96 43.2 21.95 43.24 21.95C43.28 21.95 43.32 21.96 43.36 21.98C43.28 21.99 43.2 21.99 43.13 21.98Z" fill="#FFFFFF" fill-opacity="1.000000" fill-rule="nonzero"/>
		<path id="Vector" d="M30.01 21.13C30 21.16 29.98 21.19 29.96 21.22C29.94 21.24 29.91 21.26 29.88 21.28C29.91 21.22 29.95 21.16 30.01 21.13Z" fill="#FFFFFF" fill-opacity="1.000000" fill-rule="nonzero"/>
		<path id="Vector" d="M29.41 20.99L29.37 20.99L29.35 20.96L29.41 20.99Z" fill="#FFFFFF" fill-opacity="1.000000" fill-rule="nonzero"/>
		<path id="Vector" d="M7.85 21.68C7.76 21.3 8.04 21.61 8.18 21.6C8.04 21.61 7.92 21.88 7.85 21.68Z" fill="#FFFFFF" fill-opacity="1.000000" fill-rule="nonzero"/>
		<path id="Vector" d="M8.84 22.28C8.81 22.22 8.76 22.17 8.71 22.14C8.66 22.1 8.6 22.08 8.53 22.07C8.63 22.05 8.72 22.09 8.84 22.28Z" fill="#FFFFFF" fill-opacity="1.000000" fill-rule="nonzero"/>
		<path id="Vector" d="M7.95 22.15C8.13 22.07 8.33 22.04 8.53 22.07C8.38 22.09 8.23 22.24 7.95 22.15Z" fill="#FFFFFF" fill-opacity="1.000000" fill-rule="nonzero"/>
		<path id="Vector" d="M11.91 22.06C11.79 21.83 11.41 21.97 11.41 21.97C12.21 21.72 11.37 21.52 11.35 21.35C11.79 21.41 11.73 21.71 11.91 22.06Z" fill="#FFFFFF" fill-opacity="1.000000" fill-rule="nonzero"/>
		<path id="Vector" d="M12.87 22.14C12.79 22.15 12.72 22.16 12.65 22.2C12.68 22.17 12.72 22.15 12.75 22.14C12.79 22.14 12.83 22.14 12.87 22.14Z" fill="#FFFFFF" fill-opacity="1.000000" fill-rule="nonzero"/>
		<path id="Vector" d="M13.2 21.91C13.44 21.95 13.47 22.22 13.54 22.42C13.19 22.62 13.09 22.2 12.87 22.14C13.05 22.13 13.22 22.16 13.2 21.91Z" fill="#FFFFFF" fill-opacity="1.000000" fill-rule="nonzero"/>
		<path id="Vector" d="M17.44 21.11C17.39 21.09 17.24 21.09 17.28 20.94L17.71 20.93C17.86 21.01 17.53 21.08 17.44 21.11Z" fill="#FFFFFF" fill-opacity="1.000000" fill-rule="nonzero"/>
		<path id="Vector" d="M18.48 21.63C18.81 21.65 18.73 21.27 18.88 21.35L18.74 21.86L18.48 21.63Z" fill="#FFFFFF" fill-opacity="1.000000" fill-rule="nonzero"/>
		<path id="Vector" d="M17.95 23.59L17.86 23.54L17.97 23.56L17.95 23.59Z" fill="#FFFFFF" fill-opacity="1.000000" fill-rule="nonzero"/>
		<path id="Vector" d="M19.9 21.31L19.8 20.75C20.05 20.88 19.95 21.33 19.9 21.31Z" fill="#FFFFFF" fill-opacity="1.000000" fill-rule="nonzero"/>
		<path id="Vector" d="M20.92 20.97L20.76 20.8L21.36 20.96L20.92 20.97Z" fill="#FFFFFF" fill-opacity="1.000000" fill-rule="nonzero"/>
		<path id="Vector" d="M22.06 21.15L22.14 21.03L22.54 21.17L22.06 21.15Z" fill="#FFFFFF" fill-opacity="1.000000" fill-rule="nonzero"/>
		<path id="Vector" d="M35.19 21.61C35.13 22.09 34.49 21.88 34.26 22.01C34.55 21.41 34.76 22.21 35.19 21.61Z" fill="#FFFFFF" fill-opacity="1.000000" fill-rule="nonzero"/>
		<path id="Vector" d="M42.47 22.19L41.85 22.06C42.4 21.89 41.99 22.06 42.47 22.19Z" fill="#FFFFFF" fill-opacity="1.000000" fill-rule="nonzero"/>
	</mask>
	<g mask="url(#mask5_503)">
		<path id="Vector" d="M50.61 20.68C49.81 22.48 46.01 23.38 44.51 23.48C43.82 23.58 42.92 23.08 42.22 23.18C41.82 23.28 41.62 23.98 41.12 23.88C40.72 23.88 40.42 23.78 40.02 23.68C38.42 23.28 36.62 23.08 34.92 23.28C34.02 23.38 33.22 22.88 32.42 22.68C31.82 22.58 31.02 22.88 30.32 22.78C29.22 22.58 28.13 22.88 27.13 22.78C25.43 22.68 23.83 22.68 22.13 22.58C20.83 22.48 19.53 22.78 18.33 22.88C17.13 22.98 15.93 22.98 14.73 22.98C12.34 22.98 9.94 22.88 7.54 22.88" stroke="#202020" stroke-opacity="1.000000" stroke-width="3.998648" stroke-linejoin="round" stroke-dasharray="41.9858 41.9858"/>
	</g>
	<mask id="mask5_545" mask-type="alpha" maskUnits="userSpaceOnUse" x="0.825439" y="12.545898" width="29.222412" height="16.624634">
		<path id="Vector" d="M27.82 28.52C27.84 28.54 27.87 28.57 27.9 28.59C27.8 28.59 27.75 28.57 27.82 28.52Z" fill="#FFFFFF" fill-opacity="1.000000" fill-rule="nonzero"/>
		<path id="Vector" d="M29.08 29.05C28.65 29 28.25 28.84 27.9 28.59C28.23 28.6 29.19 28.46 29.08 29.05Z" fill="#FFFFFF" fill-opacity="1.000000" fill-rule="nonzero"/>
		<path id="Vector" d="M28.12 27.59L28.48 27.85C28.17 27.95 28.32 27.69 28.12 27.59Z" fill="#FFFFFF" fill-opacity="1.000000" fill-rule="nonzero"/>
		<path id="Vector" d="M28.07 28.15L27.96 28.36L27.81 28.1L28.07 28.15Z" fill="#FFFFFF" fill-opacity="1.000000" fill-rule="nonzero"/>
		<path id="Vector" d="M5.19 24.71C5.2 24.82 5.17 24.93 5.11 25.03L5.19 24.71Z" fill="#FFFFFF" fill-opacity="1.000000" fill-rule="nonzero"/>
		<path id="Vector" d="M4.62 23.5C4.56 23.45 4.5 23.41 4.44 23.38C4.5 23.38 4.54 23.42 4.62 23.5Z" fill="#FFFFFF" fill-opacity="1.000000" fill-rule="nonzero"/>
		<path id="Vector" d="M6.12 24.87L5.94 24.85C6 24.84 6.07 24.84 6.12 24.87Z" fill="#FFFFFF" fill-opacity="1.000000" fill-rule="nonzero"/>
		<path id="Vector" d="M17.48 27C17.59 27.19 17.69 27.36 17.77 27.48C17.38 27.56 17.49 27.22 17.48 27Z" fill="#FFFFFF" fill-opacity="1.000000" fill-rule="nonzero"/>
		<path id="Vector" d="M2.55 23.88L2.62 23.7C2.66 23.77 2.68 23.84 2.55 23.88Z" fill="#FFFFFF" fill-opacity="1.000000" fill-rule="nonzero"/>
		<path id="Vector" d="M5.59 20.69C5.56 20.77 5.52 20.84 5.47 20.9C5.46 20.88 5.44 20.87 5.43 20.85L5.59 20.69Z" fill="#FFFFFF" fill-opacity="1.000000" fill-rule="nonzero"/>
		<path id="Vector" d="M6.97 24.73L6.98 24.72L7.08 24.86C6.99 24.87 6.95 24.83 6.97 24.73Z" fill="#FFFFFF" fill-opacity="1.000000" fill-rule="nonzero"/>
		<path id="Vector" d="M4.09 23.82C4.16 23.92 4.21 24.03 4.24 24.15C4.21 24.14 4.18 24.12 4.16 24.1C4.13 24.08 4.11 24.05 4.1 24.02C4.09 23.99 4.08 23.95 4.08 23.92C4.08 23.89 4.08 23.85 4.09 23.82Z" fill="#FFFFFF" fill-opacity="1.000000" fill-rule="nonzero"/>
		<path id="Vector" d="M4.41 23.37L4.41 23.37L4.44 23.38C4.43 23.38 4.42 23.38 4.41 23.37Z" fill="#FFFFFF" fill-opacity="1.000000" fill-rule="nonzero"/>
		<path id="Vector" d="M6.92 21.28C6.86 21.23 6.8 21.19 6.74 21.13C6.76 21.12 6.78 21.12 6.8 21.13C6.82 21.14 6.84 21.15 6.86 21.16C6.88 21.17 6.89 21.19 6.9 21.21C6.91 21.23 6.92 21.25 6.92 21.28Z" fill="#FFFFFF" fill-opacity="1.000000" fill-rule="nonzero"/>
		<path id="Vector" d="M17.48 27C17.45 26.94 17.42 26.89 17.4 26.84C17.46 26.86 17.48 26.92 17.48 27Z" fill="#FFFFFF" fill-opacity="1.000000" fill-rule="nonzero"/>
		<path id="Vector" d="M26.5 28.64C26.36 28.61 26.37 28.48 26.39 28.36C26.45 28.44 26.49 28.54 26.5 28.64Z" fill="#FFFFFF" fill-opacity="1.000000" fill-rule="nonzero"/>
		<path id="Vector" d="M29.73 14.05L29.79 14.02C29.78 14.03 29.77 14.04 29.76 14.04C29.75 14.04 29.74 14.05 29.73 14.05Z" fill="#FFFFFF" fill-opacity="1.000000" fill-rule="nonzero"/>
		<path id="Vector" d="M23.86 15.83C23.82 15.8 23.8 15.77 23.78 15.73C23.84 15.67 23.86 15.74 23.86 15.83Z" fill="#FFFFFF" fill-opacity="1.000000" fill-rule="nonzero"/>
		<path id="Vector" d="M18.53 22.1L17.54 21.81C17.49 22.02 17.03 22.18 17.32 22.34L16.95 22.08L16.96 22.31C15.28 23.07 14.1 21.61 12.39 22.92L12.41 23L11.54 22.63C11.36 22.72 11.26 23.14 10.97 23.34C11.15 22.87 10.44 23.39 10.31 23.04C10.07 23.26 10.28 23.33 10.32 23.5C9.37 24.08 8.75 23.49 7.73 23.98C8.26 23.57 8.84 23.23 9.46 22.98C8.7 22.87 8.52 23.34 7.68 23.36L8.06 23.48C7.54 24.21 6.81 23.36 6.58 24.11C6.09 24.1 5.75 23.45 5.11 23.69L5.3 24.28L4.74 24.39L4.78 23.95C4.71 23.95 4.64 23.97 4.59 24.01C4.53 24.05 4.49 24.11 4.46 24.18C4.14 23.75 3.57 24.12 3.09 23.83L3 24.06C2.97 24.02 2.94 23.98 2.91 23.93C2.76 24.33 2.36 24.27 2.29 24.62C2.45 24.68 2.82 24.81 2.82 24.58C3.19 24.93 2.26 24.92 1.98 24.97C2.31 24.71 1.92 24.73 1.76 24.67C1.73 24.73 1.78 24.75 1.8 24.84C1.74 24.87 1.68 24.9 1.61 24.9L3.14 19.5C3.46 19.64 3.28 20.44 3.85 19.86L3.75 20.29L4.25 20.1C3.92 20.92 4.73 20.33 4.45 21.1C4.86 21.24 4.6 20.62 4.71 20.75C5.17 20.7 5.53 21.63 5.83 21.29C6.05 21.66 6.49 21.59 6.71 21.83L6.88 21.49C6.99 21.62 7.09 21.84 7.26 21.82C7.28 21.77 7.29 21.71 7.28 21.66C7.69 21.97 8.16 22.19 8.66 22.31C8.73 22.07 8.79 21.93 8.56 21.77C9.14 21.57 9.53 22.54 10.25 22.59L10.28 22.4L10.52 22.79C10.5 22.66 10.6 22.55 10.66 22.41C11.33 22.52 12.12 22.74 12.15 23.52C12.05 23.3 12.62 23.19 12.37 22.8C12.82 23.44 13.7 23.56 14.36 23.87L14.34 23.89L14.57 24.14L14.62 24.09L14.46 23.91C14.72 24.03 14.94 24.24 15.09 24.49C15.23 24.29 15.41 24.13 15.61 24.01C15.44 24.44 16.62 23.83 16.77 24.41C16.87 24.3 16.66 24.28 16.84 24.17C17.71 24.47 18.82 25.32 20.03 25.25C19.77 26.11 20.76 26.11 21.18 26.64C21.53 26.18 20.95 26.31 20.96 25.9C21.24 26.08 21.27 25.3 21.69 25.83C21.7 25.74 21.75 25.69 21.63 25.66C21.96 25.7 21.31 26.26 21.87 26.22L22.03 25.87L22.15 26.41C23.27 26.43 24.04 26.91 25.09 26.75C25.09 26.82 25.07 26.89 25.03 26.95C24.99 27 24.93 27.05 24.87 27.08C25.28 27.15 25.53 27.85 26.13 27.6L26.07 27.42C26.94 27.29 26.66 28.02 27.49 28.34C27.28 28.33 26.92 27.97 26.71 28.37C26.69 28.65 27.16 28.71 27.39 28.54L27.13 29C27.12 28.67 26.77 28.64 26.58 28.44C26.63 28.49 26.61 28.59 26.6 28.69C26.37 28.51 26.12 28.36 25.86 28.24L26.33 28.28C26.33 27.78 25.56 28.13 25.45 27.92C25.28 28.36 25.58 28.35 25.17 28.65C24.35 28.64 24.91 28.09 24.36 27.54L24.55 27.42C24.34 27.31 24.35 26.8 23.89 27.06C23.78 27.35 24.03 27.4 24.1 27.58C23.96 27.73 23.9 26.96 23.53 27.2C23.58 27.42 23.7 27.61 23.86 27.75C24.02 27.9 24.23 28 24.45 28.03C24.34 28.15 24.28 28.31 24.28 28.47C23.29 27.88 22.29 27.07 21.09 27.06C21.45 27.74 20.83 27.01 20.73 27.62C20.81 27.19 20.31 27.49 20.07 27.25C19.77 27.66 20.54 27.74 20.18 27.97C19.64 27.72 19.18 26.74 18.36 26.71C18.34 26.9 18.51 26.96 18.5 27.06C18.06 26.8 17.83 25.63 17.21 26.22C17.34 26.53 17.5 26.87 17.66 27.17C17.6 27.15 17.5 27.17 17.31 27.27L17.36 27.63C16.71 27.58 17.18 26.82 17.02 26.34L16.47 26.69C16.3 26.72 16.13 26.72 15.97 26.68C15.8 26.64 15.64 26.57 15.51 26.48C15.37 26.38 15.25 26.25 15.17 26.11C15.08 25.97 15.02 25.81 14.99 25.64C14.87 25.61 14.37 25.49 14.4 25.95C14.5 26.58 14.5 26.99 15.17 27.18C15.42 26.83 14.84 26.63 15.05 26.65C15.29 26.8 15.91 26.62 16 27.03L15.29 26.8C15.05 27.38 15.58 26.9 15.59 27.22C15.2 27.64 15.01 27.02 14.6 27.21L14.64 27.25C14.11 27 14.13 27.13 13.67 26.73C13.85 26.2 14 26.46 14.36 26.32C13.43 26.07 12.6 24.75 11.28 25.41L11.63 26.01C11.25 26.01 10.85 25.37 10.6 26.05C11.08 25.94 10.74 26.3 10.89 26.47L10.94 26.42C10.98 26.46 11.09 26.59 10.96 26.65C10.75 26.27 10.47 25.93 10.13 25.65C10.22 25.84 9.82 25.97 9.73 26.05C9.45 25.86 9.85 25.76 9.96 25.57C9.8 25.49 9.68 25.04 9.39 25.36C9.02 25.58 9.55 25.75 9.52 26.03L8.75 25.3L8.74 25.39C8.71 25.26 8.6 25.13 8.46 25.19C8.27 25.4 8.47 25.52 8.64 25.49C7.98 25.71 8.08 24.48 7.33 25.07L7.14 24.79C7.09 24.84 6.99 24.94 7.03 24.98L6.85 24.68C6.43 24.31 6.49 25.13 6.27 25.2L6.3 25.21C6.1 25.24 5.89 25.42 5.97 25.51L5.56 25.05L5.55 25.06C5.53 24.57 4.77 24.24 5.12 23.48C4.94 23.49 4.77 23.6 4.78 23.73C4.4 23.57 4.61 24.36 4.01 24.05C3.95 24.2 4.04 24.19 4.11 24.27C3.93 24.24 3.89 24.17 3.89 24.08C3.85 24.18 3.78 24.27 3.71 24.36C3.83 24.07 3.54 24.05 3.36 24.07L3.38 24.63C3.38 24.57 3.37 24.52 3.35 24.47C3.33 24.42 3.29 24.37 3.25 24.34C3.21 24.3 3.16 24.28 3.11 24.26C3.06 24.25 3.01 24.24 2.95 24.25L2.99 24.62C2.59 24.38 3.25 23.95 2.59 24.06L3.21 23.9C2.69 23.63 3.15 23.07 3.03 22.72C2.79 22.3 2.26 22.41 1.89 22.27L1.95 22.09C2.08 22.06 2.22 22.08 2.33 22.15C2.45 22.22 2.53 22.33 2.58 22.45C2.69 22.12 2.62 22.02 2.85 21.71C2.68 21.72 2.51 21.67 2.37 21.57C2.22 21.47 2.12 21.32 2.08 21.15L2.06 21.13L1.48 23.21C1.98 23.85 2.18 22.07 2.64 23.03C2.42 23.42 2.17 23.36 2.04 23.09C1.98 23.23 1.96 23.39 1.98 23.54C1.99 23.69 2.05 23.84 2.13 23.96C1.86 23.8 1.53 23.74 1.22 23.79L2.13 20.56C2.33 20.45 2.53 20.37 2.75 20.33C2.88 20.49 3.26 20.67 3.46 20.53C3.4 20.8 4.19 20.85 3.87 21.45C4.42 21.49 4.32 20.62 4.78 21.16C4.64 20.73 5.18 20.76 5 20.4C4.76 20.84 4.24 20.29 3.99 20.05L4.84 19.66C4.62 19.81 4.88 20.05 4.98 20.09L5.14 19.68C5.15 20.59 6.65 18.75 6.92 19.76C6.68 19.75 6.42 20.11 6.36 19.64C5.85 20 6.37 20.33 6.11 20.69C6.8 20.93 7.99 20.12 8.7 20.66C8.59 20.4 8.22 20.5 8.23 20.13C8.85 19.81 9.46 20.55 10.09 20.76L10.02 20.3C10.54 20.62 10.27 20.08 10.87 20.13C10.83 20.2 10.73 20.39 10.87 20.36C11.38 20.23 10.97 19.94 11.32 19.76C11.86 20.39 11.68 19.2 12.43 19.45L12.39 19.29C12.98 19.49 13.86 18.66 14.54 18.44C14.48 18.57 13.99 18.55 13.99 19L14.82 18.98C14.88 18.85 15.25 18.75 15.06 18.54C14.95 18.5 14.83 18.61 14.74 18.66L14.88 18.4C15.63 18.5 14.75 19.11 14.7 19.55C15.14 19.32 15.24 19.73 15.52 19.67C15.7 19.2 15.03 19.28 15.45 18.74C15.72 18.46 16.5 18.64 16.74 19.02C17.26 17.91 18.38 18.49 18.48 17.7C18.45 17.76 18.56 18.02 18.76 17.86L18.67 17.69C19.28 17.2 19.17 18.28 19.55 18.02C19.56 17.88 19.45 17.84 19.41 17.69C20.2 17.33 20.54 18.38 21.36 17.71C21.33 17.63 21.31 17.55 21.23 17.6C21.2 17.52 21.34 17.49 21.58 17.62L21.29 17.99C21.64 18.81 22.41 17.31 23.03 17.39C22.98 17.24 22.51 17.34 22.77 17.04C23.18 16.92 23.1 17.9 23.62 17.29C23.4 17.25 23.48 16.77 23.28 16.74C23.6 16.59 23.83 16.26 23.94 16.57C23.98 16.53 24.02 16.49 24.04 16.43C24.06 16.38 24.08 16.32 24.08 16.26C24.27 16.47 24.61 16.18 24.83 16.03L24.77 15.88C25.16 16.66 25.43 15.71 25.95 15.58L25.87 15.36C26.03 15.43 26.21 15.45 26.39 15.39C26.56 15.34 26.7 15.22 26.79 15.07L26.59 14.83C26.9 14.95 27.44 14.25 27.71 14.62C27.81 14.49 27.41 14.17 27.88 13.95C27.93 13.99 27.99 14.03 28.05 14.04C28.11 14.06 28.17 14.06 28.24 14.05C28.3 14.03 28.36 14 28.4 13.96C28.45 13.91 28.48 13.86 28.5 13.8C28.49 13.66 28.42 13.52 28.3 13.71C28.23 13.78 28.28 13.78 28.31 13.85L28.13 13.7C28.48 13.31 28.44 13.79 28.82 13.48C28.88 13.27 28.67 13.26 28.6 13.12C28.6 13.12 28.97 13.11 29.35 13.06L30.11 13C30.16 13.19 29.99 13.39 30.16 13.6L29.66 13.92C29.46 14.39 29.98 14.2 30.22 14.2L29.87 14.4C29.85 14.44 29.87 14.48 29.9 14.49L29.63 14.59C30.41 14.73 28.96 15.6 29.79 15.61C29.68 15.62 29.57 15.61 29.47 15.58C29.36 15.54 29.27 15.48 29.2 15.39C28.83 15.44 28.94 15.66 28.81 15.85L29.38 15.94C28.51 16.18 29.51 16.29 28.9 16.81C28.16 16.86 27.81 18.12 27.42 18.31C26.66 18.53 27.7 17.78 27.22 17.75C26.8 17.84 27.02 18.08 26.76 18.26L26.57 17.82C26.1 17.91 26.56 18.31 26.29 18.21C25.92 18.66 26.41 18.37 26.51 18.72C26.4 18.66 26.27 18.65 26.15 18.67C26.03 18.7 25.91 18.76 25.83 18.86C25.83 19 26.34 18.85 26.02 19.02C24.84 19.15 24.54 19.81 23.48 20.06L23.57 20.28C23.45 20.26 23.37 20.17 23.25 20.3L23.31 20.45C22.66 20.46 22.03 20.55 21.41 20.71L21.74 20.93L21.15 20.72L21.18 21.16C21 20.76 20.26 21.24 19.69 21.23L19.66 21.52L19.33 21.43L19.43 21.61C19.09 21.66 18.72 21.26 18.3 21.59C18.56 21.44 18.57 21.89 18.53 22.1ZM4.58 23.91L4.43 23.92C4.48 23.95 4.53 23.94 4.58 23.91L4.82 23.9C4.83 23.63 4.71 23.83 4.58 23.91ZM19.48 25.5L19.16 25.36C19.24 25.35 19.43 25.55 19.41 25.32C19.45 25.37 19.58 25.39 19.48 25.5ZM5.47 20.94L5.32 20.74L5.15 21.06L5.47 20.94ZM8.61 20.35L8.3 20.24L8.26 20.31L8.58 20.41L8.61 20.35ZM12.66 22.18C12.51 21.71 12.34 22.25 12.1 22.09C12.08 22.07 12.06 22.05 12.04 22.04C12.06 22.06 12.08 22.08 12.1 22.09C12.23 22.24 12.34 22.67 12.66 22.18ZM5.44 23.2C5.41 23.49 5.8 23.47 5.89 23.66C6.07 23.56 5.86 23.35 5.83 23.18C5.92 23.14 5.97 23.15 6.08 23.19C6.09 22.59 5.75 23.46 5.44 23.2L5.44 23.2ZM5.97 21.86L5.8 21.56L5.89 21.55L5.97 21.86ZM7.45 22.03C7.53 22.05 7.6 22.09 7.66 22.15C7.72 22.21 7.76 22.28 7.78 22.36C7.81 22.44 7.81 22.53 7.79 22.61C7.78 22.69 7.74 22.76 7.69 22.83C7.45 22.67 7.03 22.62 7.04 22.21C7.09 22.48 7.2 21.64 7.45 22.03ZM9.43 21.99C9.22 21.92 8.98 21.3 8.49 21.75L8.8 21.85L8.72 21.9L8.77 22.15C8.77 21.46 9.24 22 9.43 21.99ZM9.9 23.27C9.97 23.31 10.03 23.37 10.08 23.44C10.13 23.5 10.16 23.58 10.18 23.66C10.2 23.74 10.2 23.82 10.19 23.9C10.17 23.98 10.14 24.06 10.1 24.13C10.26 23.88 9.88 23.46 9.71 23.16C9.78 23.24 9.82 23.28 9.9 23.27ZM9.55 23.73C9.37 23.75 9.29 24.08 9.11 23.78C9.27 23.53 9.44 22.87 8.96 22.97C9.06 23.51 8.99 23.75 9.29 24.08L9.55 23.73ZM9.29 22.61L8.7 22.67C8.72 23.31 9.01 22.76 9.29 22.61L9.48 22.58C9.45 22.57 9.41 22.57 9.38 22.57C9.35 22.58 9.31 22.59 9.29 22.61ZM12.9 23.7L12.82 23.52C12.87 23.44 12.89 23.36 12.73 23.3L12.82 23.52C12.72 23.66 12.46 23.78 12.9 23.7ZM9.75 22.78L10.2 22.96C10.03 22.98 9.68 23.02 9.75 22.78L9.75 22.78ZM11.85 23.83C12.07 23.88 12.3 23.92 12.53 23.93C12.46 23.75 12.01 23.58 11.85 23.83ZM22.75 26.81L22.46 27.13L22.75 27.23L22.75 26.81ZM19.41 26.56L19.25 26.49L19.1 26.65L19.41 26.56ZM15.69 25.97C15.72 25.97 15.75 25.96 15.78 25.94C15.8 25.92 15.83 25.9 15.84 25.87C16.28 25.73 16.76 25.74 17.2 25.9C17.44 25.73 17.14 25.31 17.07 25.14C16.76 26.37 16.62 24.97 16.15 25.31C16.17 25.44 16.39 25.46 16.37 25.64C16.3 25.69 16.22 25.71 16.14 25.7C16.06 25.7 15.99 25.67 15.93 25.61C15.94 25.52 15.92 25.45 15.88 25.44C15.87 25.47 15.87 25.5 15.88 25.53C15.89 25.56 15.91 25.59 15.93 25.61C15.92 25.7 15.89 25.79 15.84 25.87C15.78 25.89 15.73 25.93 15.69 25.97L15.69 25.97ZM11.21 24.83C11.19 24.71 11.42 24.62 11.22 24.4C11.18 24.47 11.15 24.54 11.15 24.62C11.15 24.69 11.17 24.77 11.21 24.83C11.22 24.88 11.26 24.93 11.37 24.99C11.3 24.95 11.25 24.9 11.22 24.83L11.21 24.83ZM11.17 25.52L10.78 24.87L10.87 25.19L10.57 24.85C10.54 24.94 10.53 25.04 10.55 25.13C10.57 25.22 10.61 25.3 10.67 25.37C10.74 25.44 10.82 25.49 10.91 25.51C10.99 25.54 11.09 25.54 11.18 25.52L11.17 25.52ZM9.72 24.77L10.32 25.11L10.33 25.04L10.37 25.06L10.37 24.74L10.34 25.05L9.72 24.77ZM4.49 22.66L4.16 22.6C4.22 22.7 4.3 22.79 4.39 22.86C4.48 22.93 4.59 22.98 4.7 23.01C4.01 23.72 4.64 22.83 3.93 22.99C4.6 23.17 4.11 23.6 3.94 23.92C4.02 23.41 3.05 23.45 3.74 22.55C3.88 22.81 4.58 22 4.5 22.66L4.49 22.66ZM3.88 21.76L4.32 21.76L3.85 21.83L3.88 21.76ZM16.4 19.06C16.31 18.65 15.65 19.19 15.66 19.41C15.76 19.22 16.09 19.18 16.4 19.06ZM20.92 18.11C20.66 18.27 20.33 17.8 20.19 18.35L20.71 18.42C20.81 18.22 20.99 18.35 20.92 18.11ZM24.21 17.05L24.38 17.51L24.21 17.48L24.21 17.05ZM23.66 16.66C23.75 16.61 24.1 16.61 23.99 16.87L23.66 16.66ZM27.08 15.87L26.87 15.5L27.08 15.39L27.08 15.87ZM26.87 16.26C26.8 16.24 26.77 16.15 26.75 16.04C26.63 15.96 26.43 15.99 26.25 16.19C26.28 16.4 26.41 16.21 26.53 16.22C26.45 16.28 26.31 16.48 26.14 16.46C26.33 15.99 26.19 16.04 26.2 15.69C26.7 15.3 26.69 15.74 26.75 16.04C26.79 16.06 26.82 16.09 26.84 16.13C26.86 16.17 26.87 16.21 26.88 16.26L26.87 16.26ZM25.06 17.06C25.1 16.99 25.14 16.91 25.15 16.82C25.48 16.58 25.81 16.35 25.46 16.06L25.16 16.23C25.3 16.18 25.27 16.24 25.3 16.32C25.08 16.57 24.94 16.33 24.77 16.3C24.86 16.43 25.21 16.52 25.15 16.82C25.07 16.89 24.98 16.95 24.9 17.02C24.85 16.98 24.79 16.97 24.72 17.14L24.75 17.21C24.79 17.14 24.84 17.07 24.9 17.02C24.95 17.06 25 17.12 25.06 17.06ZM27.15 16.5C27.18 16.57 27.13 16.7 27.22 16.78L27.39 16.79C27.61 16.53 27.34 16.44 27.15 16.5ZM17.56 19.13C17.5 19.11 16.99 19.25 17.02 18.96L16.84 19.42C17.1 19.28 17.32 19.58 17.2 19.69C17.42 19.38 17.6 19.52 17.56 19.13ZM4.65 21.65C4.77 21.77 5.45 21.32 5.47 21.85C5.77 21.19 4.99 21.46 4.65 21.64L4.65 21.65ZM4.5 22.28C4.44 22.27 4.39 22.27 4.33 22.28C4.15 22.2 4.22 21.75 3.86 22.06C3.93 22.16 4.08 21.99 4.16 22.09C4.1 22.37 4.16 22.31 4.33 22.28C4.36 22.29 4.39 22.3 4.42 22.3C4.44 22.3 4.47 22.29 4.5 22.27L4.5 22.28ZM11.73 21.34L11.36 21.44L11.18 21.07L11.73 21.34ZM15.17 21.14L14.87 21.11L14.99 21C15 20.9 15.08 20.73 15.01 20.67C14.96 20.67 14.91 20.67 14.86 20.66C14.94 20.64 14.98 20.65 15.01 20.67C15.23 20.66 15.51 20.57 15.51 20.87C15.43 20.77 15.01 20.86 15.02 21.08L15.17 21.14ZM22.45 19.71C22.28 19.67 22.25 19.59 21.98 19.9C22.07 19.91 22.16 19.91 22.24 19.87C22.33 19.84 22.4 19.78 22.45 19.71ZM13.36 21.81C13.36 21.59 12.95 21.75 13.12 21.43L13.3 21.34C13.03 21.48 13.22 20.79 12.82 21.18L13.05 21.11C12.75 21.31 13.34 21.51 12.9 21.73C12.72 21.83 13.15 21.97 13.36 21.81ZM22.99 20.18C22.73 20.2 22.83 19.57 22.38 19.98C22.7 19.98 22.62 20.55 22.99 20.18ZM15.79 22.24L15.75 22.3L15.43 22.19L15.46 22.13L15.79 22.24Z" fill="#FFFFFF" fill-opacity="1.000000" fill-rule="nonzero"/>
		<path id="Vector" d="M22.82 16.39C22.89 16.34 22.97 16.31 23.05 16.32C22.98 16.35 22.9 16.38 22.82 16.39Z" fill="#FFFFFF" fill-opacity="1.000000" fill-rule="nonzero"/>
		<path id="Vector" d="M3.19 19.98C3.18 20.01 3.17 20.04 3.15 20.07C3.13 20.1 3.11 20.13 3.08 20.15C3.1 20.08 3.14 20.02 3.19 19.98Z" fill="#FFFFFF" fill-opacity="1.000000" fill-rule="nonzero"/>
		<path id="Vector" d="M2.39 19.93L2.36 19.94L2.34 19.91L2.39 19.93Z" fill="#FFFFFF" fill-opacity="1.000000" fill-rule="nonzero"/>
		<path id="Vector" d="M26.12 28.97C26.13 29.39 25.94 29 25.81 28.98C25.94 29 26.09 28.75 26.12 28.97Z" fill="#FFFFFF" fill-opacity="1.000000" fill-rule="nonzero"/>
		<path id="Vector" d="M25.37 28.12C25.38 28.19 25.41 28.24 25.45 28.29C25.49 28.34 25.54 28.39 25.59 28.41C25.51 28.41 25.43 28.34 25.37 28.12Z" fill="#FFFFFF" fill-opacity="1.000000" fill-rule="nonzero"/>
		<path id="Vector" d="M26.12 28.47C25.94 28.51 25.76 28.49 25.59 28.41C25.72 28.42 25.9 28.3 26.12 28.47Z" fill="#FFFFFF" fill-opacity="1.000000" fill-rule="nonzero"/>
		<path id="Vector" d="M22.63 27.62C22.69 27.89 23.04 27.83 23.04 27.83C22.29 27.9 23 28.3 22.98 28.49C22.6 28.31 22.72 28.02 22.63 27.62Z" fill="#FFFFFF" fill-opacity="1.000000" fill-rule="nonzero"/>
		<path id="Vector" d="M21.8 27.3C21.87 27.31 21.94 27.31 22 27.29C21.98 27.31 21.94 27.32 21.9 27.32C21.87 27.32 21.83 27.31 21.8 27.3Z" fill="#FFFFFF" fill-opacity="1.000000" fill-rule="nonzero"/>
		<path id="Vector" d="M21.47 27.46C21.26 27.36 21.29 27.07 21.27 26.85C21.62 26.72 21.63 27.18 21.81 27.3C21.64 27.26 21.49 27.2 21.47 27.46Z" fill="#FFFFFF" fill-opacity="1.000000" fill-rule="nonzero"/>
		<path id="Vector" d="M13.95 27.02C13.99 27.06 14.11 27.09 14.06 27.24L13.67 27.15C13.56 27.02 13.86 27.03 13.95 27.02Z" fill="#FFFFFF" fill-opacity="1.000000" fill-rule="nonzero"/>
		<path id="Vector" d="M12.85 25.95C12.56 25.85 12.55 26.27 12.44 26.14L12.67 25.65L12.85 25.95Z" fill="#FFFFFF" fill-opacity="1.000000" fill-rule="nonzero"/>
		<path id="Vector" d="M14.09 23.47L14.16 23.54L14.06 23.5L14.09 23.47Z" fill="#FFFFFF" fill-opacity="1.000000" fill-rule="nonzero"/>
		<path id="Vector" d="M11.19 26.06L11.16 26.67C10.97 26.46 11.15 26.02 11.19 26.06Z" fill="#FFFFFF" fill-opacity="1.000000" fill-rule="nonzero"/>
		<path id="Vector" d="M9.88 26.13L9.98 26.34L9.5 26.03L9.88 26.13Z" fill="#FFFFFF" fill-opacity="1.000000" fill-rule="nonzero"/>
		<path id="Vector" d="M8.61 25.48L8.51 25.59L8.19 25.34L8.61 25.48Z" fill="#FFFFFF" fill-opacity="1.000000" fill-rule="nonzero"/>
		<path id="Vector" d="M9.9 19.29C9.9 19.75 9.25 19.68 9.03 19.84C9.24 19.22 9.55 19.93 9.9 19.29Z" fill="#FFFFFF" fill-opacity="1.000000" fill-rule="nonzero"/>
		<path id="Vector" d="M22.23 16.76L21.59 16.83C22.1 16.51 21.73 16.79 22.23 16.76Z" fill="#FFFFFF" fill-opacity="1.000000" fill-rule="nonzero"/>
	</mask>
	<g mask="url(#mask5_545)">
		<path id="Vector" d="M29.33 12.38C29.42 13.08 29.23 13.88 28.73 14.38C27.23 15.68 25.63 16.88 23.93 17.78C23.43 18.08 22.83 18.28 22.33 18.28C22.13 18.28 21.33 18.68 21.23 18.68C20.53 18.88 20.73 18.78 20.13 18.88C19.53 18.98 18.83 18.88 18.23 18.98C18.03 18.98 17.83 19.08 17.63 19.08C17.13 19.18 16.73 19.18 16.23 19.28C16.13 19.28 16.03 19.28 15.93 19.38C15.83 19.38 15.73 19.48 15.63 19.58C15.53 19.58 15.33 19.58 15.23 19.58C15.13 19.58 14.93 19.68 14.83 19.78C14.83 19.78 14.93 19.68 14.93 19.58C11.64 20.38 8.44 20.58 5.14 21.08C4.44 21.18 3.14 20.68 2.44 20.78C0.64 24.08 3.34 22.78 4.14 22.48C4.34 22.38 4.54 22.58 4.74 22.78C4.84 22.88 4.04 22.58 5.54 23.08C5.74 23.08 6.44 22.68 6.64 22.68C7.44 22.98 7.04 23.48 7.84 23.78C8.34 23.98 9.64 24.58 10.14 24.58C12.84 24.88 15.23 24.98 17.73 25.88C19.03 26.38 20.23 26.48 21.53 26.88C21.83 26.98 22.13 27.08 22.53 27.08C22.73 27.08 22.93 27.08 23.13 27.08C25.63 26.88 27.63 28.88 30.02 29.48" stroke="#202020" stroke-opacity="1.000000" stroke-width="3.998648" stroke-linejoin="round" stroke-dasharray="61.979 61.979"/>
	</g>
</svg>
