<svg width="20.000000" height="17.000000" viewBox="0 0 20 17" fill="none" xmlns="http://www.w3.org/2000/svg" xmlns:xlink="http://www.w3.org/1999/xlink">
	<desc>
			Created with Pixso.
	</desc>
	<defs/>
	<path id="Vector" d="M18.75 6.16C18.82 6.18 18.9 6.18 18.98 6.16L19.74 5.96L18.63 5.09C18.25 4.79 17.33 4.86 17.21 4.72C17.09 4.78 16.95 4.82 16.82 4.83C16.68 4.84 16.54 4.82 16.41 4.77C16.48 4.84 16.47 5.15 16.23 5.07C16.41 4.46 15.8 4.73 15.66 4.25C15.8 4.58 14.93 4.22 15.16 4.69C14.96 4.61 15.18 4.45 15.04 4.28C14.5 4.45 13.95 3.96 13.32 3.95C13.31 4 13.33 4.07 13.32 4.15C13.31 4.15 13.31 4.15 13.3 4.14C13.11 3.44 12.79 2.79 12.36 2.21C11.91 1.54 11.57 0.81 11.34 0.04C11.41 0.36 11.33 0.26 11.25 0.15C11.29 0.27 11.19 0.35 11.18 0.47C11.1 0.21 11.02 -0.06 10.93 -0.32C10.83 -0.1 10.59 -0.81 10.55 -0.56L10.64 -0.46C10.59 -0.22 10.59 0.03 10.64 0.27L10.42 -0.19L7.91 4.9L6.21 5.14C6.23 5.14 6.24 5.14 6.24 5.13L6.22 5.03C6.11 5.05 6.05 5.13 6.12 5.16L5.82 5.2C5.98 5.02 5.77 4.45 5.55 4.14C5.55 4.22 5.56 4.3 5.37 4.44C5.46 4.53 5.87 4.61 5.72 4.81C5.46 4.94 5.48 4.77 5.34 4.69C5.47 4.88 5.14 5.04 5.14 5.31L3.48 5.55C3.48 5.53 3.48 5.52 3.48 5.5C3.47 5.49 3.46 5.48 3.45 5.46L3.31 5.52C3.13 5.34 3.55 5.2 3.35 5.13C3.53 4.96 3.73 4.7 4.04 4.77L4.14 5.05C4.12 5.03 4.1 5.01 4.08 4.99C4.06 4.98 4.03 4.97 4.01 4.96C3.98 4.96 3.95 4.96 3.92 4.97C3.9 4.98 3.87 4.99 3.85 5.01C3.95 4.86 4.35 5.33 4.43 4.94L4.2 4.77C4.39 4.59 4.6 4.25 4.87 4.3C4.71 4.04 4.81 4.34 4.58 4.04C4.8 4.43 3.92 4.12 4.24 4.51C4 4.16 3.89 4.4 3.6 4.1C3.62 4.2 3.71 4.27 3.49 4.26C3.48 4.29 3.47 4.32 3.45 4.35L3.44 4.35L3.45 4.36C3.51 4.39 3.55 4.43 3.58 4.49C3.51 4.72 3.16 4.76 3.06 4.9C2.93 4.87 3.1 4.78 3.02 4.69L2.87 4.88C2.82 4.67 2.48 4.58 2.76 4.41L2.49 4.44C2.37 4.38 2.23 4.35 2.1 4.37L-0.69 4.99L1.34 6.7C1.38 6.74 1.42 6.76 1.47 6.77C1.53 6.9 1.87 6.83 1.67 6.87L2.07 7.08L2.04 7.12C2.32 7.43 2.91 7.48 2.99 8.09C3.16 8.15 3.31 8.26 3.41 8.42L3.31 8.58C3.49 8.66 3.58 9.1 3.77 9.02C3.57 9.51 4.33 9.72 4.5 10L4.68 9.84C4.79 9.95 4.92 10.04 5.06 10.11C4.91 10.48 5.35 10.96 5.01 11.24C5.04 11.28 5.05 11.33 5.04 11.37C5.03 11.42 5 11.46 4.97 11.49C4.97 11.48 4.96 11.47 4.96 11.46C4.95 11.47 4.95 11.49 4.95 11.5C4.91 11.54 4.86 11.58 4.81 11.62C4.86 11.6 4.91 11.56 4.95 11.52C4.94 11.63 4.95 11.74 4.98 11.84L4.74 11.85L4.74 11.88C4.64 11.98 4.83 11.99 5.01 11.96C5.04 12.02 5.08 12.08 5.12 12.14C4.74 12.17 5.19 12.46 4.79 12.52C4.96 12.63 4.83 13.12 5.22 13.25C5.16 13.25 5.13 13.27 5.14 13.21C5.07 13.33 5.01 13.45 5.1 13.58L4.8 13.58L5.14 13.93C4.94 14.07 4.82 14.12 4.63 13.92C4.9 14.38 4.7 14.27 4.98 14.67L4.79 14.62C4.78 14.75 4.99 14.99 4.83 15.04C4.78 15.07 4.73 15.11 4.7 15.15L4.15 15.95L5.7 15.88C6.15 15.86 6.88 15.24 7.58 15.21C7.2 14.78 7.99 15.27 7.82 14.88C7.92 14.98 8.04 14.99 7.99 15.15C8.25 14.86 8.57 15.07 8.63 14.63C8.73 14.73 8.65 14.84 8.72 14.89C8.73 14.85 8.77 14.74 8.84 14.79C8.91 14.85 8.84 14.92 8.82 14.99C9.14 14.8 8.99 14.42 8.84 14.07C9.09 14.14 9.16 14.07 9.17 13.79C9.28 13.87 9.44 13.94 9.25 14.08C9.38 14.04 10.05 13.87 9.92 13.6C9.99 13.65 10.09 13.53 10.11 13.48C10.25 13.43 10.39 13.36 10.53 13.29C10.81 13.64 10.76 13.25 11.06 13.73L11.14 13.52C11.41 13.11 11.42 13.99 11.78 13.97L11.74 13.8C11.97 13.73 11.84 14.61 11.97 14.74C11.98 14.8 11.88 14.78 11.82 14.78C12.08 15.24 12.01 14.54 12.34 14.63C12.31 14.81 12.08 14.96 12.26 15.09C12.29 15.26 13.07 14.92 13.19 15.34C13.19 15.2 13.19 15.06 13.37 15.05C13.59 15.12 13.71 15.75 14.08 15.51C14.09 15.54 14.08 15.58 14.07 15.61C14.27 15.61 14.66 15.73 14.85 15.6C14.78 15.85 14.88 15.96 15.04 16.01L16.76 16.56L16.25 15.13C16.14 14.82 15.71 14.46 16.19 14.38L16.05 13.85L16.13 13.85C16.13 13.73 16.1 13.61 16.02 13.51C15.95 13.41 15.85 13.34 15.73 13.31C15.77 13.22 15.84 13.27 15.88 13.27C15.94 12.74 15.9 12.69 15.47 12.33L15.7 12.25C15.54 12.15 15.93 11.45 15.58 11C15.62 11 15.66 11.02 15.69 11.04C15.36 10.58 15.98 9.76 15.42 9.58C15.55 9.48 15.67 9.38 15.77 9.49C16.43 8.81 17.27 8.34 17.92 7.73L17.6 7.55L17.84 7.35C17.95 7.35 18.11 7.47 17.94 7.62C18.16 7.68 18.09 7.24 18.04 7.18C18.45 6.98 18.2 7.59 18.3 7.5L18.41 7.36L18.35 7.36C18.36 7.16 18.26 7.03 18.47 6.86C18.64 6.79 18.68 6.95 18.74 6.91C18.75 6.93 18.78 6.92 18.82 6.85L19.11 6.6L18.82 6.51C18.85 6.29 19.1 6.26 18.75 6.16ZM5.51 10.58L5.67 10.53L5.55 10.21C5.71 10.31 5.94 10.5 6.17 10.7L6.09 11.19C5.84 11.04 5.64 10.83 5.51 10.58ZM5.38 8.88C5.39 8.85 5.41 8.81 5.43 8.78L5.67 9.02L5.42 9.28L5.7 9.05L5.93 9.28C5.8 9.42 5.66 9.55 5.5 9.66L5.45 9.52L5.43 9.58C5.38 9.35 5.36 9.11 5.38 8.88L5.38 8.88ZM13.32 4.17C13.31 4.19 13.3 4.21 13.29 4.23C13.27 4.26 13.26 4.27 13.23 4.29L13.06 3.98L13.32 4.17ZM5.79 5.2L5.44 5.25C5.46 5.23 5.48 5.21 5.51 5.19C5.54 5.17 5.57 5.16 5.6 5.15C5.63 5.15 5.67 5.15 5.7 5.16C5.73 5.17 5.76 5.18 5.79 5.2L5.79 5.2ZM5.36 5.25L5.36 5.27L5.34 5.27L5.36 5.25ZM2.29 4.59L2.28 4.6C2.12 4.54 2.18 4.56 2.29 4.59L2.29 4.59ZM2.68 6.92C2.36 6.76 2.75 6.64 2.67 6.64C2.31 6.19 1.89 6.64 1.68 6.33L0.61 4.77L2.16 4.86C2.21 4.86 2.27 4.88 2.32 4.9C2.56 5.12 2.4 5.4 2.47 5.57C2.41 5.61 2.34 5.62 2.27 5.61L2.1 5.6L2.22 5.78C2.3 5.92 2.29 6.09 2.39 6.18L2.31 5.94C2.44 5.94 2.61 6.02 2.63 6.14C2.63 6.1 2.63 6.06 2.61 6.03L3.54 6.93C3.26 7.03 2.95 7.03 2.67 6.92L2.68 6.92ZM4.44 8.1C4.49 8.05 4.53 7.99 4.55 7.92L4.75 8.11C4.64 8.13 4.54 8.13 4.43 8.1L4.44 8.1ZM5.6 14.03L5.56 14.26L5.18 13.96C5.32 14 5.46 14.02 5.6 14.03L5.6 14.03ZM8.83 13.87C8.77 13.85 8.75 13.74 8.75 13.6C8.73 13.63 8.73 13.67 8.72 13.7C8.69 13.69 8.66 13.68 8.64 13.66C8.61 13.64 8.6 13.62 8.58 13.59L8.74 13.51L8.74 13.61L8.78 13.49L8.85 13.45C8.93 13.49 9 13.53 9.08 13.56L8.83 13.87ZM16.03 14.13C15.99 14.16 15.95 14.21 15.93 14.26L15.91 14.22L16.03 14.13ZM15.03 10.25L15.02 10.22L15.14 9.81C14.75 10.1 14.93 9.49 14.69 9.53C14.79 9.36 15.22 9.37 15.09 9.57L15.03 9.56C15.05 9.6 15.07 9.63 15.11 9.65C15.14 9.67 15.18 9.68 15.22 9.68L15.03 10.25ZM18.62 6.83C18.68 6.68 18.69 6.75 18.71 6.83L18.62 6.83Z" fill="#FBED81" fill-opacity="1.000000" fill-rule="nonzero"/>
</svg>
